<svg width="900" height="160" viewBox="0 0 900 160" fill="none" xmlns="http://www.w3.org/2000/svg">
<path d="M0.0923255 126V12.6135H16.7763L48.2006 93.2799L79.6249 12.6135H96.1469V126H82.2166V40.6361L52.898 115.633H43.3412L14.1847 40.6361V126H0.0923255ZM141.479 127.296C127.71 127.296 116.21 119.845 116.21 102.513C116.21 85.0189 130.14 75.786 152.331 75.786H166.586V72.2224C166.586 59.7499 158.973 55.0524 149.254 55.0524C139.535 55.0524 134.028 60.5598 131.436 68.3349L119.449 65.5812C121.717 51.8128 134.028 43.0659 149.254 43.0659C167.072 43.0659 179.868 53.7566 179.868 73.6802V126H169.339L166.91 114.175C162.05 121.789 153.951 127.296 141.479 127.296ZM143.908 115.309C153.951 115.309 166.586 108.182 166.586 89.8783V87.2866H152.817C137.429 87.2866 130.14 92.7939 130.14 102.351C130.14 110.774 135.485 115.309 143.908 115.309ZM229.415 127.296C215.323 127.296 205.766 119.197 205.766 101.055V56.3483H191.998V44.3617H205.766V19.9026L219.211 11.3176V44.3617H241.078V56.3483H219.211V102.027C219.211 111.422 223.584 115.309 230.549 115.309C233.627 115.309 236.866 114.823 239.944 113.042L243.346 124.38C239.134 126.486 234.113 127.296 229.415 127.296ZM257.571 126V11.3176H271.015V60.7218C276.523 49.0591 287.699 43.0659 299.038 43.0659C314.912 43.0659 324.469 52.1368 324.469 69.1448V126H311.186V72.3844C311.186 61.2077 306.003 55.0524 295.798 55.0524C282.678 55.0524 271.015 68.1729 271.015 91.3361V126H257.571ZM372.843 127.296C354.863 127.296 345.306 116.119 342.391 105.104L353.567 99.1112C356.645 108.668 362.152 115.309 372.843 115.309C380.618 115.309 385.801 110.936 385.801 102.999C385.801 95.5476 378.188 91.8221 368.145 88.0965C356.483 83.885 347.898 77.7297 347.898 64.9333C347.898 51.9748 358.103 43.0659 371.709 43.0659C382.4 43.0659 390.175 47.4393 395.358 55.8623L386.611 63.6374C382.562 57.3202 377.54 55.0524 371.547 55.0524C365.716 55.0524 360.856 58.616 360.856 64.9333C360.856 71.0885 365.878 74.3281 378.998 79.1876C389.689 83.0751 398.922 90.0403 398.922 102.513C398.922 117.901 388.555 127.296 372.843 127.296ZM448.792 127.296C423.847 127.296 411.374 107.048 411.374 85.1809C411.374 63.3134 423.847 43.0659 448.792 43.0659C465.476 43.0659 477.138 50.517 482.97 65.9051L470.983 70.6026C466.933 60.7218 459.806 55.0524 448.792 55.0524C432.756 55.0524 425.304 68.4968 425.304 85.1809C425.304 101.703 432.756 115.309 448.792 115.309C459.806 115.309 466.61 109.802 470.983 99.7591L482.97 104.457C477.138 119.521 465.476 127.296 448.792 127.296ZM520.963 127.296C507.195 127.296 495.694 119.845 495.694 102.513C495.694 85.0189 509.624 75.786 531.816 75.786H546.07V72.2224C546.07 59.7499 538.457 55.0524 528.738 55.0524C519.019 55.0524 513.512 60.5598 510.92 68.3349L498.934 65.5812C501.201 51.8128 513.512 43.0659 528.738 43.0659C546.556 43.0659 559.352 53.7566 559.352 73.6802V126H548.824L546.394 114.175C541.534 121.789 533.435 127.296 520.963 127.296ZM523.393 115.309C533.435 115.309 546.07 108.182 546.07 89.8783V87.2866H532.302C516.913 87.2866 509.624 92.7939 509.624 102.351C509.624 110.774 514.97 115.309 523.393 115.309ZM581.849 159.044V44.3617H595.293V50.031V54.8905C598.857 49.0591 608.252 43.0659 619.104 43.0659C643.077 43.0659 655.712 61.2077 655.712 85.1809C655.712 109.154 643.077 127.296 619.104 127.296C609.871 127.296 600.153 122.922 595.293 115.795V120.655V159.044H581.849ZM617.808 115.309C632.873 115.309 641.782 102.675 641.782 85.1809C641.782 67.5249 632.873 55.0524 617.808 55.0524C602.744 55.0524 593.997 67.5249 593.997 85.1809C593.997 102.675 602.744 115.309 617.808 115.309ZM744.339 81.6173V87.2866H684.245C684.892 103.485 693.477 115.309 708.218 115.309C719.718 115.309 726.036 110.45 731.543 99.4352L742.882 104.295C735.107 120.331 724.416 127.296 707.894 127.296C684.245 127.296 670.638 107.534 670.638 85.1809C670.638 62.5035 684.083 43.0659 707.894 43.0659C730.895 43.0659 744.339 60.5598 744.339 81.6173ZM685.054 75.786H730.733C728.789 63.6374 721.338 55.0524 707.894 55.0524C697.203 55.0524 687.97 61.8556 685.054 75.786ZM787.286 127.296C769.306 127.296 759.749 116.119 756.833 105.104L768.01 99.1112C771.088 108.668 776.595 115.309 787.286 115.309C795.061 115.309 800.244 110.936 800.244 102.999C800.244 95.5476 792.631 91.8221 782.588 88.0965C770.926 83.885 762.341 77.7297 762.341 64.9333C762.341 51.9748 772.546 43.0659 786.152 43.0659C796.843 43.0659 804.618 47.4393 809.801 55.8623L801.054 63.6374C797.005 57.3202 791.983 55.0524 785.99 55.0524C780.159 55.0524 775.299 58.616 775.299 64.9333C775.299 71.0885 780.321 74.3281 793.441 79.1876C804.132 83.0751 813.365 90.0403 813.365 102.513C813.365 117.901 802.998 127.296 787.286 127.296ZM862.93 75.8875C841.743 75.8875 826.095 59.5599 826.095 37.984C826.095 16.4082 841.743 0.0805434 862.93 0.0805434C884.117 0.0805434 899.764 16.4082 899.764 37.984C899.764 59.5599 884.117 75.8875 862.93 75.8875ZM862.93 68.5012C880.424 68.5012 892.184 55.2836 892.184 37.984C892.184 20.6845 880.424 7.46686 862.93 7.46686C845.436 7.46686 833.676 20.6845 833.676 37.984C833.676 55.2836 845.436 68.5012 862.93 68.5012ZM849.032 58.6852V17.2829H863.902C872.26 17.2829 877.022 21.9479 877.022 29.1399C877.022 35.36 873.135 39.5391 867.984 40.6081L879.743 58.6852H872.066L860.597 40.9969H856.224V58.6852H849.032ZM856.224 34.874H863.513C867.886 34.874 869.927 32.6387 869.927 29.1399C869.927 25.5439 867.886 23.4058 863.513 23.4058H856.224V34.874Z" fill="white"/>
</svg>
