<?xml version="1.0" encoding="UTF-8"?>
<svg id="_01_Logomark_-_Construction" data-name="01 Logomark - Construction" xmlns="http://www.w3.org/2000/svg" viewBox="0 0 1200 675">
  <path d="m479.145708,194.660837h41.983203l79.07465,202.985853,79.075349-202.985853h41.575382v285.321674h-35.05374v-214.806723l-73.776471,188.720154h-24.048163l-73.36865-188.720154v214.806723h-35.461561V194.660837Z" style="fill: gray;"/>
  <line x1="457.339163" y1="481.765772" x2="457.339163" y2="490.682074" style="fill: none; stroke: gray; stroke-miterlimit: 10;"/>
  <line x1="742.660837" y1="481.765772" x2="742.660837" y2="490.682074" style="fill: none; stroke: gray; stroke-miterlimit: 10;"/>
  <g>
    <path d="m581.209961,502.094727v-2.13623h-3.624023v-1.07959l3.720215-5.244141h.923828v5.412109h1.260254v.911621h-1.260254v2.13623h-1.02002Zm-2.748047-3.047852h2.748047v-3.888184l-2.748047,3.888184Z" style="fill: gray;"/>
    <path d="m587.954102,493.514648c.543945,0,.996094.12207,1.355957.366211s.644043.574219.852051.989746c.208008.416016.355957.88623.443848,1.410156s.132324,1.065918.132324,1.625977-.044434,1.102051-.132324,1.625977-.23584.996094-.443848,1.416016-.492188.751953-.852051.996094c-.359863.243652-.812012.365723-1.355957.365723s-.996094-.12207-1.355957-.365723c-.359863-.244141-.644043-.576172-.852051-.996094s-.355957-.89209-.443848-1.416016c-.088379-.523926-.132324-1.065918-.132324-1.625977s.043945-1.102051.132324-1.625977c.087891-.523926.23584-.994141.443848-1.410156.208008-.415527.492188-.745605.852051-.989746s.812012-.366211,1.355957-.366211Zm0,.912109c-.616211,0-1.070312.315918-1.361816.947754-.29248.632324-.437988,1.476074-.437988,2.532227,0,.512207.033691.978027.101562,1.397949s.169922.77832.306152,1.074219l2.364258-5.556152c-.26416-.26416-.588379-.395996-.972168-.395996Zm1.799805,3.47998c0-.463867-.027832-.888184-.083984-1.271973-.055664-.384277-.139648-.724121-.251953-1.02002l-2.315918,5.496094c.240234.191895.523926.288086.852051.288086.416016,0,.755859-.144043,1.02002-.432129s.459961-.693848.587891-1.218262c.12793-.523926.191895-1.137695.191895-1.841797Z" style="fill: gray;"/>
    <path d="m595.370117,493.514648c.543945,0,.996094.12207,1.355957.366211s.644043.574219.852051.989746c.208008.416016.355957.88623.443848,1.410156s.132324,1.065918.132324,1.625977-.044434,1.102051-.132324,1.625977-.23584.996094-.443848,1.416016-.492188.751953-.852051.996094c-.359863.243652-.812012.365723-1.355957.365723s-.996094-.12207-1.355957-.365723c-.359863-.244141-.644043-.576172-.852051-.996094s-.355957-.89209-.443848-1.416016c-.088379-.523926-.132324-1.065918-.132324-1.625977s.043945-1.102051.132324-1.625977c.087891-.523926.23584-.994141.443848-1.410156.208008-.415527.492188-.745605.852051-.989746s.812012-.366211,1.355957-.366211Zm0,.912109c-.616211,0-1.070312.315918-1.361816.947754-.29248.632324-.437988,1.476074-.437988,2.532227,0,.512207.033691.978027.101562,1.397949s.169922.77832.306152,1.074219l2.364258-5.556152c-.26416-.26416-.588379-.395996-.972168-.395996Zm1.799805,3.47998c0-.463867-.027832-.888184-.083984-1.271973-.055664-.384277-.139648-.724121-.251953-1.02002l-2.315918,5.496094c.240234.191895.523926.288086.852051.288086.416016,0,.755859-.144043,1.02002-.432129s.459961-.693848.587891-1.218262c.12793-.523926.191895-1.137695.191895-1.841797Z" style="fill: gray;"/>
    <path d="m608.545898,504.710938h-1.007812v-8.904297h.923828v.936035c.463867-.751953,1.132324-1.12793,2.004395-1.12793.624023,0,1.133789.158203,1.529785.474121s.689941.731934.881836,1.248047c.192383.515625.288086,1.078125.288086,1.686035,0,.599609-.098145,1.149902-.293945,1.649902-.196289.5-.494141.897949-.894043,1.193848s-.899902.443848-1.5.443848c-.407715,0-.766113-.07373-1.07373-.22168-.308105-.147949-.594238-.38623-.858398-.714355v3.336426Zm1.752441-8.160156c-.416504,0-.752441.116211-1.008301.348145s-.443848.531738-.563965.899902-.180176.755859-.180176,1.164062c0,.407715.060059.795898.180176,1.164062.120117.367676.308105.667969.563965.899902s.591797.347656,1.008301.347656c.423828,0,.769531-.11377,1.037598-.341797s.466309-.523926.594238-.888184c.12793-.36377.191895-.745605.191895-1.145996,0-.423828-.063965-.821777-.191895-1.193848s-.326172-.673828-.594238-.905762-.61377-.348145-1.037598-.348145Z" style="fill: gray;"/>
    <path d="m617.665527,495.806641h2.472168v.815918h-2.472168v3.504395c0,.463867.120117.785645.360352.96582.239746.180176.587891.27002,1.043945.27002.208008,0,.399902-.009766.575684-.030273.17627-.019531.340332-.049805.492188-.089844v.875977c-.200195.056152-.395996.094238-.587891.114258-.191895.019531-.37207.029785-.540039.029785-.760254,0-1.340332-.155762-1.740234-.467773s-.600098-.808105-.600098-1.488281v-3.684082h-1.811523v-.815918h1.811523v-1.728027h.996094v1.728027Z" style="fill: gray;"/>
  </g>
  <g>
    <line x1="460.869385" y1="487.828857" x2="739.130615" y2="487.828857" style="fill: none; stroke: gray; stroke-miterlimit: 10;"/>
    <polygon points="457.339111 487.828857 462.313721 489.861572 461.133301 487.828857 462.313721 485.796631 457.339111 487.828857" style="fill: gray;"/>
    <polygon points="742.660889 487.828857 737.686279 489.861572 738.866699 487.828857 737.686279 485.796631 742.660889 487.828857" style="fill: gray;"/>
  </g>
  <g>
    <path d="m659.915039,187.499023l-.744141-2.507812h-2.89209l-.743652,2.507812h-1.152344l2.652344-8.388184h1.403809l2.640137,8.388184h-1.164062Zm-3.359863-3.443848h2.339844l-1.17627-3.936035-1.163574,3.936035Z" style="fill: gray;"/>
    <path d="m663.490723,190.115234h-1.007812v-8.904297h.923828v.936035c.463867-.751953,1.132324-1.12793,2.004395-1.12793.624023,0,1.133789.158203,1.529785.474121s.689941.731934.881836,1.248047c.192383.515625.288086,1.078125.288086,1.686035,0,.599609-.098145,1.149902-.293945,1.649902-.196289.5-.494141.897949-.894043,1.193848s-.899902.443848-1.5.443848c-.407715,0-.766113-.07373-1.07373-.22168-.308105-.147949-.594238-.38623-.858398-.714355v3.336426Zm1.752441-8.160156c-.416504,0-.752441.116211-1.008301.348145s-.443848.531738-.563965.899902-.180176.755859-.180176,1.164062c0,.407715.060059.795898.180176,1.164062.120117.367676.308105.667969.563965.899902s.591797.347656,1.008301.347656c.423828,0,.769531-.11377,1.037598-.341797s.466309-.523926.594238-.888184c.12793-.36377.191895-.745605.191895-1.145996,0-.423828-.063965-.821777-.191895-1.193848s-.326172-.673828-.594238-.905762-.61377-.348145-1.037598-.348145Z" style="fill: gray;"/>
    <path d="m675.298828,185.555176c-.104004.655762-.394043,1.180176-.869629,1.571777-.476074.39209-1.08252.587891-1.818359.587891-.631836,0-1.160156-.14209-1.583984-.425781s-.742188-.673828-.954102-1.169922-.317871-1.063965-.317871-1.704102c0-.704102.120117-1.308105.359863-1.812012.240234-.503906.576172-.894043,1.008301-1.169922s.936035-.414062,1.511719-.414062c.648438,0,1.178223.151855,1.590332.456055.411621.304199.71582.728027.912109,1.271973.195801.543945.293945,1.180176.293945,1.907715h-4.632324c.016113.616211.17627,1.126465.47998,1.530273.304199.403809.760254.605957,1.368164.605957.82373,0,1.37207-.412109,1.644043-1.23584h1.007812Zm-2.675781-3.612305c-.560059,0-.988281.184082-1.28418.552246s-.467773.815918-.516113,1.34375h3.52832c0-.351562-.070312-.669922-.209961-.953613-.140137-.28418-.338379-.512207-.594238-.684082s-.563965-.258301-.923828-.258301Z" style="fill: gray;"/>
    <path d="m677.758789,187.499023v-6.288086h.924316v1.355957c.208008-.447754.507812-.815918.899902-1.104004s.84375-.431641,1.355957-.431641c.720215,0,1.27002.184082,1.649902.551758.379883.368164.598145.864258.654297,1.487793h-.996094c-.072266-.375488-.218262-.663574-.437988-.86377-.220215-.199707-.541992-.299805-.966309-.299805-.416016,0-.779785.109863-1.091797.32959-.312012.220215-.554199.520508-.726074.900391s-.257812.817871-.257812,1.313965v3.047852h-1.008301Z" style="fill: gray;"/>
    <path d="m690.08252,183.287109h-1.007812c-.056152-.416016-.216309-.744141-.47998-.983887-.26416-.240234-.616211-.360352-1.056152-.360352-.432129,0-.780273.120117-1.043945.360352-.26416.239746-.456055.549805-.576172.929688-.120117.380371-.180176.77832-.180176,1.194336s.063965.803711.192383,1.163574c.12793.360352.327637.650391.600098.870117.271484.220215.615723.330078,1.031738.330078.888184,0,1.416016-.496094,1.583984-1.487793h1.007812c-.063965.751953-.321777,1.341797-.773926,1.77002-.452148.427734-1.065918.641602-1.841797.641602-.60791,0-1.124023-.145996-1.547852-.437988-.424316-.291992-.746094-.685547-.966309-1.181641s-.330078-1.052246-.330078-1.667969c0-.632324.108398-1.204102.324219-1.716309.21582-.511719.535645-.921875.959961-1.22998.423828-.307617.948242-.461914,1.571777-.461914.768066,0,1.37793.211914,1.830078.635742.452148.424316.686035.968262.702148,1.632324Z" style="fill: gray;"/>
    <path d="m697.318359,181.210938v6.288086h-.899902v-.936035c-.288086.416016-.59375.712402-.917969.888184-.32373.175781-.718262.263672-1.182129.263672-.551758,0-1.003906-.124023-1.355957-.371582-.431641-.312012-.647949-.760254-.647949-1.344238v-4.788086h.996094v4.39209c0,.424316.139648.744141.419922.959961.231934.184082.523926.275879.875977.275879.472168,0,.868164-.171875,1.187988-.515625.352051-.375977.52832-.916016.52832-1.620117v-3.492188h.995605Z" style="fill: gray;"/>
    <path d="m707.026367,187.499023v-8.388184h3.060059c.503906,0,.959961.094238,1.368164.282227s.731934.467773.972168.839844c.239746.37207.359863.833984.359863,1.38623,0,.551758-.120117,1.013672-.359863,1.385742-.240234.37207-.563965.652344-.972168.840332s-.864258.281738-1.368164.281738h-1.967773v3.37207h-1.092285Zm1.092285-4.319824h1.82373c.536133,0,.954102-.140137,1.254395-.42041.299805-.279785.449707-.659668.449707-1.139648s-.149902-.859863-.449707-1.140137c-.300293-.279785-.718262-.419922-1.254395-.419922h-1.82373v3.120117Z" style="fill: gray;"/>
    <path d="m714.838379,187.499023v-6.288086h.924316v1.355957c.208008-.447754.507812-.815918.899902-1.104004s.84375-.431641,1.355957-.431641c.720215,0,1.27002.184082,1.649902.551758.379883.368164.598145.864258.654297,1.487793h-.996094c-.072266-.375488-.218262-.663574-.437988-.86377-.220215-.199707-.541992-.299805-.966309-.299805-.416016,0-.779785.109863-1.091797.32959-.312012.220215-.554199.520508-.726074.900391s-.257812.817871-.257812,1.313965v3.047852h-1.008301Z" style="fill: gray;"/>
    <path d="m724.474609,181.019043c.647949,0,1.182129.145996,1.602051.437988s.731934.689941.936035,1.193848.305664,1.076172.305664,1.716309c0,.631836-.101562,1.20166-.305664,1.709961-.204102.507812-.516113.907715-.936035,1.199707s-.954102.437988-1.602051.437988c-.640137,0-1.171875-.145996-1.596191-.437988-.423828-.291992-.737793-.691895-.941895-1.199707-.204102-.508301-.306152-1.078125-.306152-1.709961,0-.640137.102051-1.212402.306152-1.716309s.518066-.901855.941895-1.193848c.424316-.291992.956055-.437988,1.596191-.437988Zm0,.923828c-.424316,0-.768066.112305-1.032227.335938-.263672.224121-.458008.520508-.581543.888184-.124512.368164-.186035.768066-.186035,1.200195,0,.423828.061523.821777.186035,1.193848.123535.37207.317871.669922.581543.894043.26416.224121.60791.335938,1.032227.335938.423828,0,.768066-.111816,1.032227-.335938.263672-.224121.45752-.521973.581543-.894043s.186035-.77002.186035-1.193848c0-.432129-.062012-.832031-.186035-1.200195-.124023-.367676-.317871-.664062-.581543-.888184-.26416-.223633-.608398-.335938-1.032227-.335938Z" style="fill: gray;"/>
    <path d="m739.630859,184.055176h-1.812012v3.443848h-1.092285v-8.388184h2.939941c.808105,0,1.456055.188477,1.944336.563965.487793.376465.731934.952148.731934,1.728027,0,.488281-.10791.898438-.324219,1.22998-.21582.332031-.571777.622559-1.067871.870117.295898.120117.523926.251953.684082.395996.159668.144043.275879.338379.347656.582031.072266.244141.120117.569824.144043.978027l.036133.624023c.016113.200195.047852.408203.096191.624023.047852.21582.159668.388184.335938.516113v.275879h-1.236328c-.087891-.184082-.161621-.395996-.22168-.63623-.060059-.239746-.089844-.495605-.089844-.767578v-.52832c0-.495605-.112305-.871582-.336426-1.12793-.224121-.255859-.583984-.383789-1.07959-.383789Zm-1.812012-3.996094v3.047852h1.631836c.543945,0,.972168-.117676,1.28418-.354004.312012-.23584.467773-.645996.467773-1.22998,0-.511719-.154297-.883789-.461914-1.115723-.308105-.231934-.738281-.348145-1.290039-.348145h-1.631836Z" style="fill: gray;"/>
  </g>
  <g>
    <path d="m420.873047,408.578125v3.599609h2.820312v-3.995605h.983887v5.111816h-8.388184v-4.895996h.984375v3.779785h2.615723v-3.599609h.983887Z" style="fill: gray;"/>
    <path d="m424.677246,399.025879l-3.395996,2.112305,3.395996,2.111816v1.28418l-4.295898-2.808105-4.092285,2.615723v-1.307617l3.15625-1.956055-3.15625-1.944336v-1.271973l4.056152,2.62793,4.332031-2.771973v1.308105Z" style="fill: gray;"/>
    <path d="m418.629395,388.118164v1.140137c-.456055.119629-.828125.307617-1.116211.563965-.288086.255859-.432129.651855-.432129,1.187988,0,.527832.144043.953613.432129,1.277832s.689941.558105,1.206055.702148,1.109863.21582,1.782227.21582c1.135742,0,1.987793-.187988,2.555664-.563965.568359-.375977.852051-.919922.852051-1.631836,0-.560059-.175781-.976074-.527832-1.248047s-.868164-.468262-1.54834-.588379v-1.139648c1.016113.111816,1.780273.432129,2.29248.959961.511719.527832.767578,1.204102.767578,2.027832,0,.728027-.177734,1.340332-.533691,1.835938-.355957.496094-.862305.87207-1.518066,1.12793-.655762.256348-1.432129.384277-2.328125.384277-.600098,0-1.167969-.062012-1.704102-.186035-.535645-.124023-1.005859-.317871-1.409668-.582031s-.722168-.611816-.954102-1.043945-.348145-.959961-.348145-1.583984c0-.560059.112305-1.036133.335938-1.428223.224121-.391602.526367-.708008.90625-.947754.379883-.240234.810059-.399902,1.290039-.47998Z" style="fill: gray;"/>
    <path d="m416.289062,383.714355v-1.116211h7.404297v-3.996094h.983887v5.112305h-8.388184Z" style="fill: gray;"/>
    <path d="m422.049316,369.878418h-5.760254v-1.116211h5.916016c.647949,0,1.168457.134277,1.560059.401855.39209.268066.678223.624023.85791,1.068359.180176.443848.27002.929688.27002,1.458008,0,.543945-.091797,1.036133-.275879,1.475586-.184082.44043-.474121.788086-.870117,1.044434-.395996.255859-.909668.383789-1.541992.383789h-5.916016v-1.116211h5.760254c.487793,0,.866211-.081543,1.133789-.245605.268066-.164062.456055-.382324.563965-.654297.108398-.271973.162109-.567871.162109-.887695,0-.328125-.055664-.62793-.167969-.900391-.111816-.271484-.301758-.491699-.569824-.659668s-.64209-.251953-1.12207-.251953Z" style="fill: gray;"/>
    <path d="m418.713379,358.946289v1.080078c-.47998.016113-.87793.167969-1.194336.456055-.315918.288086-.473633.724121-.473633,1.308105,0,.575684.12793,1.013672.383789,1.313965.256348.299805.572266.449707.948242.449707.671875,0,1.095703-.379883,1.271973-1.139648l.395996-1.716309c.151855-.655762.427734-1.151855.827637-1.487793.400391-.335938.87207-.503906,1.416016-.503906.552246,0,1.022461.125977,1.410156.37793.388184.251953.684082.599609.888184,1.043945.203613.443848.305664.961914.305664,1.553711,0,1.040039-.257812,1.834473-.773926,2.382324s-1.22168.830078-2.117676.845703v-1.080078c.560059-.007812,1.015625-.195801,1.367676-.563965.352051-.367676.52832-.903809.52832-1.60791,0-.631836-.13623-1.09375-.408203-1.385742s-.620117-.437988-1.043945-.437988c-.375977,0-.671875.102051-.888184.305664-.21582.204102-.37207.51416-.467773.930176l-.408203,1.740234c-.144043.60791-.401855,1.071777-.773926,1.391602-.37207.320312-.846191.47998-1.421875.47998-.472168,0-.88623-.119629-1.242188-.359863-.355957-.239746-.635742-.577637-.839844-1.01416-.204102-.435547-.306152-.953613-.306152-1.553711,0-.583984.10791-1.085938.324219-1.505859.21582-.42041.509766-.742188.881836-.966309.37207-.223633.790039-.335938,1.253906-.335938h.15625Z" style="fill: gray;"/>
    <path d="m424.677246,354.38623h-.936035v-1.775879h-6.516113v1.775879h-.936035v-4.691895h.936035v1.788086h6.516113v-1.788086h.936035v4.691895Z" style="fill: gray;"/>
    <path d="m416.097168,342.22998c0-1.032227.38623-1.833984,1.158203-2.405762.771973-.572266,1.854004-.858398,3.246094-.858398,1.391602,0,2.47168.286133,3.239746.858398.768066.571777,1.151855,1.373535,1.151855,2.405762s-.383789,1.833984-1.151855,2.40625c-.768066.571777-1.848145.85791-3.239746.85791-1.39209,0-2.474121-.286133-3.246094-.85791-.771973-.572266-1.158203-1.374023-1.158203-2.40625Zm.983887,0c0,.65625.302246,1.169922.90625,1.541992s1.441895.558105,2.51416.558105c1.063965,0,1.897949-.186035,2.501953-.558105s.905762-.885742.905762-1.541992c0-.664062-.301758-1.179688-.905762-1.547852s-1.437988-.552246-2.501953-.552246c-1.072266,0-1.910156.184082-2.51416.552246s-.90625.883789-.90625,1.547852Z" style="fill: gray;"/>
    <path d="m416.289062,330.649902v-1.031738h8.388184v1.248047l-6.708008,3.299805v.012207h6.708008v1.031738h-8.388184v-1.211914l6.768066-3.335938v-.012207h-6.768066Z" style="fill: gray;"/>
    <path d="m416.289062,315.314453v-5.220215h1.008301l6.395996,4.248047v-4.271973h.983887v5.580078h-.983887l-6.419922-4.296387v3.960449h-.984375Z" style="fill: gray;"/>
    <path d="m416.097168,302.966309c0-1.032227.38623-1.833984,1.158203-2.405762.771973-.572266,1.854004-.858398,3.246094-.858398,1.391602,0,2.47168.286133,3.239746.858398.768066.571777,1.151855,1.373535,1.151855,2.405762s-.383789,1.833984-1.151855,2.40625c-.768066.571777-1.848145.85791-3.239746.85791-1.39209,0-2.474121-.286133-3.246094-.85791-.771973-.572266-1.158203-1.374023-1.158203-2.40625Zm.983887,0c0,.65625.302246,1.169922.90625,1.541992s1.441895.558105,2.51416.558105c1.063965,0,1.897949-.186035,2.501953-.558105s.905762-.885742.905762-1.541992c0-.664062-.301758-1.179688-.905762-1.547852s-1.437988-.552246-2.501953-.552246c-1.072266,0-1.910156.184082-2.51416.552246s-.90625.883789-.90625,1.547852Z" style="fill: gray;"/>
    <path d="m416.289062,291.38623v-1.031738h8.388184v1.248047l-6.708008,3.299805v.012207h6.708008v1.031738h-8.388184v-1.211914l6.768066-3.335938v-.012207h-6.768066Z" style="fill: gray;"/>
    <path d="m420.873047,280.970703v3.599609h2.820312v-3.995605h.983887v5.111816h-8.388184v-4.895996h.984375v3.779785h2.615723v-3.599609h.983887Z" style="fill: gray;"/>
    <path d="m424.677246,263.774414h-6.083984v2.244141h-.791992c-.023926-.495605-.055664-.889648-.096191-1.182129-.039551-.291504-.111816-.517578-.21582-.677734s-.257812-.286133-.461914-.37793-.481934-.182129-.833984-.27002v-.791992h8.483887v1.055664Z" style="fill: gray;"/>
  </g>
  <g>
    <path d="m349.54248,408.578125v3.599609h2.820312v-3.995605h.983887v5.111816h-8.388184v-4.895996h.984375v3.779785h2.615723v-3.599609h.983887Z" style="fill: gray;"/>
    <path d="m353.34668,399.025879l-3.395996,2.112305,3.395996,2.111816v1.28418l-4.295898-2.808105-4.092285,2.615723v-1.307617l3.15625-1.956055-3.15625-1.944336v-1.271973l4.056152,2.62793,4.332031-2.771973v1.308105Z" style="fill: gray;"/>
    <path d="m347.298828,388.118164v1.140137c-.456055.119629-.828125.307617-1.116211.563965-.288086.255859-.432129.651855-.432129,1.187988,0,.527832.144043.953613.432129,1.277832s.689941.558105,1.206055.702148,1.109863.21582,1.782227.21582c1.135742,0,1.987793-.187988,2.555664-.563965.568359-.375977.852051-.919922.852051-1.631836,0-.560059-.175781-.976074-.527832-1.248047s-.868164-.468262-1.54834-.588379v-1.139648c1.016113.111816,1.780273.432129,2.29248.959961.511719.527832.767578,1.204102.767578,2.027832,0,.728027-.177734,1.340332-.533691,1.835938-.355957.496094-.862305.87207-1.518066,1.12793-.655762.256348-1.432129.384277-2.328125.384277-.600098,0-1.167969-.062012-1.704102-.186035-.535645-.124023-1.005859-.317871-1.409668-.582031s-.722168-.611816-.954102-1.043945-.348145-.959961-.348145-1.583984c0-.560059.112305-1.036133.335938-1.428223.224121-.391602.526367-.708008.90625-.947754.379883-.240234.810059-.399902,1.290039-.47998Z" style="fill: gray;"/>
    <path d="m344.958496,383.714355v-1.116211h7.404297v-3.996094h.983887v5.112305h-8.388184Z" style="fill: gray;"/>
    <path d="m350.71875,369.878418h-5.760254v-1.116211h5.916016c.647949,0,1.168457.134277,1.560059.401855.39209.268066.678223.624023.85791,1.068359.180176.443848.27002.929688.27002,1.458008,0,.543945-.091797,1.036133-.275879,1.475586-.184082.44043-.474121.788086-.870117,1.044434-.395996.255859-.909668.383789-1.541992.383789h-5.916016v-1.116211h5.760254c.487793,0,.866211-.081543,1.133789-.245605.268066-.164062.456055-.382324.563965-.654297.108398-.271973.162109-.567871.162109-.887695,0-.328125-.055664-.62793-.167969-.900391-.111816-.271484-.301758-.491699-.569824-.659668s-.64209-.251953-1.12207-.251953Z" style="fill: gray;"/>
    <path d="m347.382812,358.946289v1.080078c-.47998.016113-.87793.167969-1.194336.456055-.315918.288086-.473633.724121-.473633,1.308105,0,.575684.12793,1.013672.383789,1.313965.256348.299805.572266.449707.948242.449707.671875,0,1.095703-.379883,1.271973-1.139648l.395996-1.716309c.151855-.655762.427734-1.151855.827637-1.487793.400391-.335938.87207-.503906,1.416016-.503906.552246,0,1.022461.125977,1.410156.37793.388184.251953.684082.599609.888184,1.043945.203613.443848.305664.961914.305664,1.553711,0,1.040039-.257812,1.834473-.773926,2.382324s-1.22168.830078-2.117676.845703v-1.080078c.560059-.007812,1.015625-.195801,1.367676-.563965.352051-.367676.52832-.903809.52832-1.60791,0-.631836-.13623-1.09375-.408203-1.385742s-.620117-.437988-1.043945-.437988c-.375977,0-.671875.102051-.888184.305664-.21582.204102-.37207.51416-.467773.930176l-.408203,1.740234c-.144043.60791-.401855,1.071777-.773926,1.391602-.37207.320312-.846191.47998-1.421875.47998-.472168,0-.88623-.119629-1.242188-.359863-.355957-.239746-.635742-.577637-.839844-1.01416-.204102-.435547-.306152-.953613-.306152-1.553711,0-.583984.10791-1.085938.324219-1.505859.21582-.42041.509766-.742188.881836-.966309.37207-.223633.790039-.335938,1.253906-.335938h.15625Z" style="fill: gray;"/>
    <path d="m353.34668,354.38623h-.936035v-1.775879h-6.516113v1.775879h-.936035v-4.691895h.936035v1.788086h6.516113v-1.788086h.936035v4.691895Z" style="fill: gray;"/>
    <path d="m344.766602,342.22998c0-1.032227.38623-1.833984,1.158203-2.405762.771973-.572266,1.854004-.858398,3.246094-.858398,1.391602,0,2.47168.286133,3.239746.858398.768066.571777,1.151855,1.373535,1.151855,2.405762s-.383789,1.833984-1.151855,2.40625c-.768066.571777-1.848145.85791-3.239746.85791-1.39209,0-2.474121-.286133-3.246094-.85791-.771973-.572266-1.158203-1.374023-1.158203-2.40625Zm.983887,0c0,.65625.302246,1.169922.90625,1.541992s1.441895.558105,2.51416.558105c1.063965,0,1.897949-.186035,2.501953-.558105s.905762-.885742.905762-1.541992c0-.664062-.301758-1.179688-.905762-1.547852s-1.437988-.552246-2.501953-.552246c-1.072266,0-1.910156.184082-2.51416.552246s-.90625.883789-.90625,1.547852Z" style="fill: gray;"/>
    <path d="m344.958496,330.649902v-1.031738h8.388184v1.248047l-6.708008,3.299805v.012207h6.708008v1.031738h-8.388184v-1.211914l6.768066-3.335938v-.012207h-6.768066Z" style="fill: gray;"/>
    <path d="m344.958496,315.314453v-5.220215h1.008301l6.395996,4.248047v-4.271973h.983887v5.580078h-.983887l-6.419922-4.296387v3.960449h-.984375Z" style="fill: gray;"/>
    <path d="m344.766602,302.966309c0-1.032227.38623-1.833984,1.158203-2.405762.771973-.572266,1.854004-.858398,3.246094-.858398,1.391602,0,2.47168.286133,3.239746.858398.768066.571777,1.151855,1.373535,1.151855,2.405762s-.383789,1.833984-1.151855,2.40625c-.768066.571777-1.848145.85791-3.239746.85791-1.39209,0-2.474121-.286133-3.246094-.85791-.771973-.572266-1.158203-1.374023-1.158203-2.40625Zm.983887,0c0,.65625.302246,1.169922.90625,1.541992s1.441895.558105,2.51416.558105c1.063965,0,1.897949-.186035,2.501953-.558105s.905762-.885742.905762-1.541992c0-.664062-.301758-1.179688-.905762-1.547852s-1.437988-.552246-2.501953-.552246c-1.072266,0-1.910156.184082-2.51416.552246s-.90625.883789-.90625,1.547852Z" style="fill: gray;"/>
    <path d="m344.958496,291.38623v-1.031738h8.388184v1.248047l-6.708008,3.299805v.012207h6.708008v1.031738h-8.388184v-1.211914l6.768066-3.335938v-.012207h-6.768066Z" style="fill: gray;"/>
    <path d="m349.54248,280.970703v3.599609h2.820312v-3.995605h.983887v5.111816h-8.388184v-4.895996h.984375v3.779785h2.615723v-3.599609h.983887Z" style="fill: gray;"/>
    <path d="m352.422852,260.894531h.923828v5.664062c-.655762-.047852-1.20166-.147949-1.638184-.299805-.435547-.151855-.817871-.394043-1.145996-.726074-.327637-.332031-.647949-.786133-.959961-1.362305l-.611816-1.115723c-.208008-.375977-.450195-.660156-.726074-.852051s-.598145-.288086-.96582-.288086c-.472168,0-.85791.12793-1.158203.384277-.299805.255859-.449707.651855-.449707,1.187988,0,.615723.191895,1.063965.575684,1.34375.384277.280273.884277.439941,1.5.47998v1.056152c-.959961-.031738-1.699707-.290039-2.219727-.773926s-.780273-1.198242-.780273-2.14209c0-.576172.114258-1.058105.342285-1.445801.228027-.388184.531738-.680176.911621-.876465.380371-.195801.806152-.293945,1.27832-.293945,1.071777,0,1.923828.596191,2.555664,1.788086l.63623,1.200195c.271973.503906.562012.87793.870117,1.12207s.662109.385742,1.062012.425781v-4.476074Z" style="fill: gray;"/>
  </g>
  <line x1="744.444097" y1="479.982511" x2="753.3604" y2="479.982511" style="fill: none; stroke: gray; stroke-miterlimit: 10;"/>
  <line x1="744.444097" y1="194.660837" x2="753.3604" y2="194.660837" style="fill: none; stroke: gray; stroke-miterlimit: 10;"/>
  <g>
    <path d="m764.773438,351.111816h-2.13623v3.624023h-1.07959l-5.244141-3.720215v-.923828h5.412109v-1.260254h.911621v1.260254h2.13623v1.02002Zm-3.047852,2.748047v-2.748047h-3.888184l3.888184,2.748047Z" style="fill: gray;"/>
    <path d="m756.193359,344.367676c0-.543945.12207-.996094.366211-1.355957s.574219-.644043.989746-.852051c.416016-.208008.88623-.355957,1.410156-.443848s1.065918-.132324,1.625977-.132324,1.102051.044434,1.625977.132324.996094.23584,1.416016.443848.751953.492188.996094.852051c.243652.359863.365723.812012.365723,1.355957s-.12207.996094-.365723,1.355957c-.244141.359863-.576172.644043-.996094.852051s-.89209.355957-1.416016.443848c-.523926.088379-1.065918.132324-1.625977.132324s-1.102051-.043945-1.625977-.132324c-.523926-.087891-.994141-.23584-1.410156-.443848-.415527-.208008-.745605-.492188-.989746-.852051s-.366211-.812012-.366211-1.355957Zm.912109,0c0,.616211.315918,1.070312.947754,1.361816.632324.29248,1.476074.437988,2.532227.437988.512207,0,.978027-.033691,1.397949-.101562s.77832-.169922,1.074219-.306152l-5.556152-2.364258c-.26416.26416-.395996.588379-.395996.972168Zm3.47998-1.799805c-.463867,0-.888184.027832-1.271973.083984-.384277.055664-.724121.139648-1.02002.251953l5.496094,2.315918c.191895-.240234.288086-.523926.288086-.852051,0-.416016-.144043-.755859-.432129-1.02002s-.693848-.459961-1.218262-.587891c-.523926-.12793-1.137695-.191895-1.841797-.191895Z" style="fill: gray;"/>
    <path d="m756.193359,336.95166c0-.543945.12207-.996094.366211-1.355957s.574219-.644043.989746-.852051c.416016-.208008.88623-.355957,1.410156-.443848s1.065918-.132324,1.625977-.132324,1.102051.044434,1.625977.132324.996094.23584,1.416016.443848.751953.492188.996094.852051c.243652.359863.365723.812012.365723,1.355957s-.12207.996094-.365723,1.355957c-.244141.359863-.576172.644043-.996094.852051s-.89209.355957-1.416016.443848c-.523926.088379-1.065918.132324-1.625977.132324s-1.102051-.043945-1.625977-.132324c-.523926-.087891-.994141-.23584-1.410156-.443848-.415527-.208008-.745605-.492188-.989746-.852051s-.366211-.812012-.366211-1.355957Zm.912109,0c0,.616211.315918,1.070312.947754,1.361816.632324.29248,1.476074.437988,2.532227.437988.512207,0,.978027-.033691,1.397949-.101562s.77832-.169922,1.074219-.306152l-5.556152-2.364258c-.26416.26416-.395996.588379-.395996.972168Zm3.47998-1.799805c-.463867,0-.888184.027832-1.271973.083984-.384277.055664-.724121.139648-1.02002.251953l5.496094,2.315918c.191895-.240234.288086-.523926.288086-.852051,0-.416016-.144043-.755859-.432129-1.02002s-.693848-.459961-1.218262-.587891c-.523926-.12793-1.137695-.191895-1.841797-.191895Z" style="fill: gray;"/>
    <path d="m767.389648,323.776367v1.007812h-8.904297v-.923828h.936035c-.751953-.463867-1.12793-1.132324-1.12793-2.004395,0-.624023.158203-1.133789.474121-1.529785s.731934-.689941,1.248047-.881836c.515625-.192383,1.078125-.288086,1.686035-.288086.599609,0,1.149902.098145,1.649902.293945.5.196289.897949.494141,1.193848.894043s.443848.899902.443848,1.5c0,.407715-.07373.766113-.22168,1.07373-.147949.308105-.38623.594238-.714355.858398h3.336426Zm-8.160156-1.752441c0,.416504.116211.752441.348145,1.008301s.531738.443848.899902.563965.755859.180176,1.164062.180176c.407715,0,.795898-.060059,1.164062-.180176.367676-.120117.667969-.308105.899902-.563965s.347656-.591797.347656-1.008301c0-.423828-.11377-.769531-.341797-1.037598s-.523926-.466309-.888184-.594238c-.36377-.12793-.745605-.191895-1.145996-.191895-.423828,0-.821777.063965-1.193848.191895s-.673828.326172-.905762.594238-.348145.61377-.348145,1.037598Z" style="fill: gray;"/>
    <path d="m758.485352,314.65625v-2.472168h.815918v2.472168h3.504395c.463867,0,.785645-.120117.96582-.360352.180176-.239746.27002-.587891.27002-1.043945,0-.208008-.009766-.399902-.030273-.575684-.019531-.17627-.049805-.340332-.089844-.492188h.875977c.056152.200195.094238.395996.114258.587891.019531.191895.029785.37207.029785.540039,0,.760254-.155762,1.340332-.467773,1.740234s-.808105.600098-1.488281.600098h-3.684082v1.811523h-.815918v-1.811523h-1.728027v-.996094h1.728027Z" style="fill: gray;"/>
  </g>
  <g>
    <line x1="750.50708" y1="476.45224" x2="750.50708" y2="198.191116" style="fill: none; stroke: gray; stroke-miterlimit: 10;"/>
    <polygon points="750.50708 479.982513 752.539795 475.007904 750.50708 476.188324 748.474854 475.007904 750.50708 479.982513" style="fill: gray;"/>
    <polygon points="750.50708 194.660843 752.539795 199.635452 750.50708 198.455032 748.474854 199.635452 750.50708 194.660843" style="fill: gray;"/>
  </g>
  <line x1="388.148657" y1="123.687071" x2="396.708307" y2="123.687071" style="fill: none; stroke: gray; stroke-dasharray: 0 12; stroke-miterlimit: 10;"/>
  <line x1="388.148657" y1="52.356652" x2="396.708307" y2="52.356652" style="fill: none; stroke: gray; stroke-dasharray: 0 12; stroke-miterlimit: 10;"/>
  <g>
    <path d="m408.121094,108.307129h-6.083984v2.244141h-.791992c-.023926-.495605-.055664-.889648-.096191-1.182129-.039551-.291504-.111816-.517578-.21582-.677734s-.257812-.286133-.461914-.37793-.481934-.182129-.833984-.27002v-.791992h8.483887v1.055664Z" style="fill: gray;"/>
    <path d="m399.541016,100.819336c0-.543945.12207-.996094.366211-1.355957s.574219-.644043.989746-.852051c.416016-.208008.88623-.355957,1.410156-.443848s1.065918-.132324,1.625977-.132324,1.102051.044434,1.625977.132324.996094.23584,1.416016.443848.751953.492188.996094.852051c.243652.359863.365723.812012.365723,1.355957s-.12207.996094-.365723,1.355957c-.244141.359863-.576172.644043-.996094.852051s-.89209.355957-1.416016.443848c-.523926.088379-1.065918.132324-1.625977.132324s-1.102051-.043945-1.625977-.132324c-.523926-.087891-.994141-.23584-1.410156-.443848-.415527-.208008-.745605-.492188-.989746-.852051s-.366211-.812012-.366211-1.355957Zm.912109,0c0,.616211.315918,1.070312.947754,1.361816.632324.29248,1.476074.437988,2.532227.437988.512207,0,.978027-.033691,1.397949-.101562s.77832-.169922,1.074219-.306152l-5.556152-2.364258c-.26416.26416-.395996.588379-.395996.972168Zm3.47998-1.799805c-.463867,0-.888184.027832-1.271973.083984-.384277.055664-.724121.139648-1.02002.251953l5.496094,2.315918c.191895-.240234.288086-.523926.288086-.852051,0-.416016-.144043-.755859-.432129-1.02002s-.693848-.459961-1.218262-.587891c-.523926-.12793-1.137695-.191895-1.841797-.191895Z" style="fill: gray;"/>
    <path d="m399.541016,93.40332c0-.543945.12207-.996094.366211-1.355957s.574219-.644043.989746-.852051c.416016-.208008.88623-.355957,1.410156-.443848s1.065918-.132324,1.625977-.132324,1.102051.044434,1.625977.132324.996094.23584,1.416016.443848.751953.492188.996094.852051c.243652.359863.365723.812012.365723,1.355957s-.12207.996094-.365723,1.355957c-.244141.359863-.576172.644043-.996094.852051s-.89209.355957-1.416016.443848c-.523926.088379-1.065918.132324-1.625977.132324s-1.102051-.043945-1.625977-.132324c-.523926-.087891-.994141-.23584-1.410156-.443848-.415527-.208008-.745605-.492188-.989746-.852051s-.366211-.812012-.366211-1.355957Zm.912109,0c0,.616211.315918,1.070312.947754,1.361816.632324.29248,1.476074.437988,2.532227.437988.512207,0,.978027-.033691,1.397949-.101562s.77832-.169922,1.074219-.306152l-5.556152-2.364258c-.26416.26416-.395996.588379-.395996.972168Zm3.47998-1.799805c-.463867,0-.888184.027832-1.271973.083984-.384277.055664-.724121.139648-1.02002.251953l5.496094,2.315918c.191895-.240234.288086-.523926.288086-.852051,0-.416016-.144043-.755859-.432129-1.02002s-.693848-.459961-1.218262-.587891c-.523926-.12793-1.137695-.191895-1.841797-.191895Z" style="fill: gray;"/>
    <path d="m410.737305,80.227539v1.007812h-8.904297v-.923828h.936035c-.751953-.463867-1.12793-1.132324-1.12793-2.004395,0-.624023.158203-1.133789.474121-1.529785s.731934-.689941,1.248047-.881836c.515625-.192383,1.078125-.288086,1.686035-.288086.599609,0,1.149902.098145,1.649902.293945.5.196289.897949.494141,1.193848.894043s.443848.899902.443848,1.5c0,.407715-.07373.766113-.22168,1.07373-.147949.308105-.38623.594238-.714355.858398h3.336426Zm-8.160156-1.752441c0,.416504.116211.752441.348145,1.008301s.531738.443848.899902.563965.755859.180176,1.164062.180176c.407715,0,.795898-.060059,1.164062-.180176.367676-.120117.667969-.308105.899902-.563965s.347656-.591797.347656-1.008301c0-.423828-.11377-.769531-.341797-1.037598s-.523926-.466309-.888184-.594238c-.36377-.12793-.745605-.191895-1.145996-.191895-.423828,0-.821777.063965-1.193848.191895s-.673828.326172-.905762.594238-.348145.61377-.348145,1.037598Z" style="fill: gray;"/>
    <path d="m401.833008,71.10791v-2.472168h.815918v2.472168h3.504395c.463867,0,.785645-.120117.96582-.360352.180176-.239746.27002-.587891.27002-1.043945,0-.208008-.009766-.399902-.030273-.575684-.019531-.17627-.049805-.340332-.089844-.492188h.875977c.056152.200195.094238.395996.114258.587891.019531.191895.029785.37207.029785.540039,0,.760254-.155762,1.340332-.467773,1.740234s-.808105.600098-1.488281.600098h-3.684082v1.811523h-.815918v-1.811523h-1.728027v-.996094h1.728027Z" style="fill: gray;"/>
  </g>
  <g>
    <line x1="393.85498" y1="120.156799" x2="393.85498" y2="55.886929" style="fill: none; stroke: gray; stroke-dasharray: 0 0 12 12; stroke-miterlimit: 10;"/>
    <polygon points="393.85498 123.687073 395.887695 118.712463 393.85498 119.892883 391.822754 118.712463 393.85498 123.687073" style="fill: gray;"/>
    <polygon points="393.85498 52.356651 395.887695 57.331261 393.85498 56.150841 391.822754 57.331261 393.85498 52.356651" style="fill: gray;"/>
  </g>
  <line x1="315.034978" y1="125.470331" x2="315.034978" y2="134.029982" style="fill: none; stroke: gray; stroke-dasharray: 0 12; stroke-miterlimit: 10;"/>
  <line x1="386.365397" y1="125.470331" x2="386.365397" y2="134.029982" style="fill: none; stroke: gray; stroke-dasharray: 0 12; stroke-miterlimit: 10;"/>
  <g>
    <path d="m332.26709,145.442871v-6.083984h-2.244141v-.791992c.495605-.023926.889648-.055664,1.182129-.096191.291504-.039551.517578-.111816.677734-.21582s.286133-.257812.37793-.461914.182129-.481934.27002-.833984h.791992v8.483887h-1.055664Z" style="fill: gray;"/>
    <path d="m339.754883,136.862793c.543945,0,.996094.12207,1.355957.366211s.644043.574219.852051.989746c.208008.416016.355957.88623.443848,1.410156s.132324,1.065918.132324,1.625977-.044434,1.102051-.132324,1.625977-.23584.996094-.443848,1.416016-.492188.751953-.852051.996094c-.359863.243652-.812012.365723-1.355957.365723s-.996094-.12207-1.355957-.365723c-.359863-.244141-.644043-.576172-.852051-.996094s-.355957-.89209-.443848-1.416016c-.088379-.523926-.132324-1.065918-.132324-1.625977s.043945-1.102051.132324-1.625977c.087891-.523926.23584-.994141.443848-1.410156.208008-.415527.492188-.745605.852051-.989746s.812012-.366211,1.355957-.366211Zm0,.912109c-.616211,0-1.070312.315918-1.361816.947754-.29248.632324-.437988,1.476074-.437988,2.532227,0,.512207.033691.978027.101562,1.397949s.169922.77832.306152,1.074219l2.364258-5.556152c-.26416-.26416-.588379-.395996-.972168-.395996Zm1.799805,3.47998c0-.463867-.027832-.888184-.083984-1.271973-.055664-.384277-.139648-.724121-.251953-1.02002l-2.315918,5.496094c.240234.191895.523926.288086.852051.288086.416016,0,.755859-.144043,1.02002-.432129s.459961-.693848.587891-1.218262c.12793-.523926.191895-1.137695.191895-1.841797Z" style="fill: gray;"/>
    <path d="m347.170898,136.862793c.543945,0,.996094.12207,1.355957.366211s.644043.574219.852051.989746c.208008.416016.355957.88623.443848,1.410156s.132324,1.065918.132324,1.625977-.044434,1.102051-.132324,1.625977-.23584.996094-.443848,1.416016-.492188.751953-.852051.996094c-.359863.243652-.812012.365723-1.355957.365723s-.996094-.12207-1.355957-.365723c-.359863-.244141-.644043-.576172-.852051-.996094s-.355957-.89209-.443848-1.416016c-.088379-.523926-.132324-1.065918-.132324-1.625977s.043945-1.102051.132324-1.625977c.087891-.523926.23584-.994141.443848-1.410156.208008-.415527.492188-.745605.852051-.989746s.812012-.366211,1.355957-.366211Zm0,.912109c-.616211,0-1.070312.315918-1.361816.947754-.29248.632324-.437988,1.476074-.437988,2.532227,0,.512207.033691.978027.101562,1.397949s.169922.77832.306152,1.074219l2.364258-5.556152c-.26416-.26416-.588379-.395996-.972168-.395996Zm1.799805,3.47998c0-.463867-.027832-.888184-.083984-1.271973-.055664-.384277-.139648-.724121-.251953-1.02002l-2.315918,5.496094c.240234.191895.523926.288086.852051.288086.416016,0,.755859-.144043,1.02002-.432129s.459961-.693848.587891-1.218262c.12793-.523926.191895-1.137695.191895-1.841797Z" style="fill: gray;"/>
    <path d="m360.34668,148.059082h-1.007812v-8.904297h.923828v.936035c.463867-.751953,1.132324-1.12793,2.004395-1.12793.624023,0,1.133789.158203,1.529785.474121s.689941.731934.881836,1.248047c.192383.515625.288086,1.078125.288086,1.686035,0,.599609-.098145,1.149902-.293945,1.649902-.196289.5-.494141.897949-.894043,1.193848s-.899902.443848-1.5.443848c-.407715,0-.766113-.07373-1.07373-.22168-.308105-.147949-.594238-.38623-.858398-.714355v3.336426Zm1.752441-8.160156c-.416504,0-.752441.116211-1.008301.348145s-.443848.531738-.563965.899902-.180176.755859-.180176,1.164062c0,.407715.060059.795898.180176,1.164062.120117.367676.308105.667969.563965.899902s.591797.347656,1.008301.347656c.423828,0,.769531-.11377,1.037598-.341797s.466309-.523926.594238-.888184c.12793-.36377.191895-.745605.191895-1.145996,0-.423828-.063965-.821777-.191895-1.193848s-.326172-.673828-.594238-.905762-.61377-.348145-1.037598-.348145Z" style="fill: gray;"/>
    <path d="m369.466309,139.154785h2.472168v.815918h-2.472168v3.504395c0,.463867.120117.785645.360352.96582.239746.180176.587891.27002,1.043945.27002.208008,0,.399902-.009766.575684-.030273.17627-.019531.340332-.049805.492188-.089844v.875977c-.200195.056152-.395996.094238-.587891.114258-.191895.019531-.37207.029785-.540039.029785-.760254,0-1.340332-.155762-1.740234-.467773s-.600098-.808105-.600098-1.488281v-3.684082h-1.811523v-.815918h1.811523v-1.728027h.996094v1.728027Z" style="fill: gray;"/>
  </g>
  <g>
    <line x1="318.565186" y1="131.176758" x2="382.835205" y2="131.176758" style="fill: none; stroke: gray; stroke-dasharray: 0 0 12 12; stroke-miterlimit: 10;"/>
    <polygon points="315.034912 131.176758 320.009521 133.209473 318.829102 131.176758 320.009521 129.144547 315.034912 131.176758" style="fill: gray;"/>
    <polygon points="386.365479 131.176758 381.390869 133.209473 382.571289 131.176758 381.390869 129.144547 386.365479 131.176758" style="fill: gray;"/>
  </g>
  <line x1="386.365397" y1="196.80075" x2="386.365397" y2="205.3604" style="fill: none; stroke: gray; stroke-dasharray: 0 12; stroke-miterlimit: 10;"/>
  <line x1="457.695815" y1="196.80075" x2="457.695815" y2="205.3604" style="fill: none; stroke: gray; stroke-dasharray: 0 12; stroke-miterlimit: 10;"/>
  <g>
    <path d="m407.744629,216.772949v-6.083984h-2.244141v-.791992c.495605-.023926.889648-.055664,1.182129-.096191.291504-.039551.517578-.111816.677734-.21582s.286133-.257812.37793-.461914.182129-.481934.27002-.833984h.791992v8.483887h-1.055664Z" style="fill: gray;"/>
    <path d="m415.232422,208.192871c.543945,0,.996094.12207,1.355957.366211s.644043.574219.852051.989746c.208008.416016.355957.88623.443848,1.410156s.132324,1.065918.132324,1.625977-.044434,1.102051-.132324,1.625977-.23584.996094-.443848,1.416016-.492188.751953-.852051.996094c-.359863.243652-.812012.365723-1.355957.365723s-.996094-.12207-1.355957-.365723c-.359863-.244141-.644043-.576172-.852051-.996094s-.355957-.89209-.443848-1.416016c-.088379-.523926-.132324-1.065918-.132324-1.625977s.043945-1.102051.132324-1.625977c.087891-.523926.23584-.994141.443848-1.410156.208008-.415527.492188-.745605.852051-.989746s.812012-.366211,1.355957-.366211Zm0,.912109c-.616211,0-1.070312.315918-1.361816.947754-.29248.632324-.437988,1.476074-.437988,2.532227,0,.512207.033691.978027.101562,1.397949s.169922.77832.306152,1.074219l2.364258-5.556152c-.26416-.26416-.588379-.395996-.972168-.395996Zm1.799805,3.47998c0-.463867-.027832-.888184-.083984-1.271973-.055664-.384277-.139648-.724121-.251953-1.02002l-2.315918,5.496094c.240234.191895.523926.288086.852051.288086.416016,0,.755859-.144043,1.02002-.432129s.459961-.693848.587891-1.218262c.12793-.523926.191895-1.137695.191895-1.841797Z" style="fill: gray;"/>
    <path d="m422.648438,208.192871c.543945,0,.996094.12207,1.355957.366211s.644043.574219.852051.989746c.208008.416016.355957.88623.443848,1.410156s.132324,1.065918.132324,1.625977-.044434,1.102051-.132324,1.625977-.23584.996094-.443848,1.416016-.492188.751953-.852051.996094c-.359863.243652-.812012.365723-1.355957.365723s-.996094-.12207-1.355957-.365723c-.359863-.244141-.644043-.576172-.852051-.996094s-.355957-.89209-.443848-1.416016c-.088379-.523926-.132324-1.065918-.132324-1.625977s.043945-1.102051.132324-1.625977c.087891-.523926.23584-.994141.443848-1.410156.208008-.415527.492188-.745605.852051-.989746s.812012-.366211,1.355957-.366211Zm0,.912109c-.616211,0-1.070312.315918-1.361816.947754-.29248.632324-.437988,1.476074-.437988,2.532227,0,.512207.033691.978027.101562,1.397949s.169922.77832.306152,1.074219l2.364258-5.556152c-.26416-.26416-.588379-.395996-.972168-.395996Zm1.799805,3.47998c0-.463867-.027832-.888184-.083984-1.271973-.055664-.384277-.139648-.724121-.251953-1.02002l-2.315918,5.496094c.240234.191895.523926.288086.852051.288086.416016,0,.755859-.144043,1.02002-.432129s.459961-.693848.587891-1.218262c.12793-.523926.191895-1.137695.191895-1.841797Z" style="fill: gray;"/>
    <path d="m435.824219,219.38916h-1.007812v-8.904297h.923828v.936035c.463867-.751953,1.132324-1.12793,2.004395-1.12793.624023,0,1.133789.158203,1.529785.474121s.689941.731934.881836,1.248047c.192383.515625.288086,1.078125.288086,1.686035,0,.599609-.098145,1.149902-.293945,1.649902-.196289.5-.494141.897949-.894043,1.193848s-.899902.443848-1.5.443848c-.407715,0-.766113-.07373-1.07373-.22168-.308105-.147949-.594238-.38623-.858398-.714355v3.336426Zm1.752441-8.160156c-.416504,0-.752441.116211-1.008301.348145s-.443848.531738-.563965.899902-.180176.755859-.180176,1.164062c0,.407715.060059.795898.180176,1.164062.120117.367676.308105.667969.563965.899902s.591797.347656,1.008301.347656c.423828,0,.769531-.11377,1.037598-.341797s.466309-.523926.594238-.888184c.12793-.36377.191895-.745605.191895-1.145996,0-.423828-.063965-.821777-.191895-1.193848s-.326172-.673828-.594238-.905762-.61377-.348145-1.037598-.348145Z" style="fill: gray;"/>
    <path d="m444.943848,210.484863h2.472168v.815918h-2.472168v3.504395c0,.463867.120117.785645.360352.96582.239746.180176.587891.27002,1.043945.27002.208008,0,.399902-.009766.575684-.030273.17627-.019531.340332-.049805.492188-.089844v.875977c-.200195.056152-.395996.094238-.587891.114258-.191895.019531-.37207.029785-.540039.029785-.760254,0-1.340332-.155762-1.740234-.467773s-.600098-.808105-.600098-1.488281v-3.684082h-1.811523v-.815918h1.811523v-1.728027h.996094v1.728027Z" style="fill: gray;"/>
  </g>
  <g>
    <line x1="389.895752" y1="202.507187" x2="454.165527" y2="202.507187" style="fill: none; stroke: gray; stroke-dasharray: 0 0 12 12; stroke-miterlimit: 10;"/>
    <polygon points="386.365479 202.507187 391.340088 204.539902 390.159668 202.507187 391.340088 200.47496 386.365479 202.507187" style="fill: gray;"/>
    <polygon points="457.695801 202.507187 452.721191 204.539902 453.901611 202.507187 452.721191 200.47496 457.695801 202.507187" style="fill: gray;"/>
  </g>
  <line x1="459.479076" y1="195.017489" x2="468.038726" y2="195.017489" style="fill: none; stroke: gray; stroke-dasharray: 0 12; stroke-miterlimit: 10;"/>
  <line x1="459.479076" y1="123.687071" x2="468.038726" y2="123.687071" style="fill: none; stroke: gray; stroke-dasharray: 0 12; stroke-miterlimit: 10;"/>
  <g>
    <path d="m479.45166,178.637695h-6.083984v2.244141h-.791992c-.023926-.495605-.055664-.889648-.096191-1.182129-.039551-.291504-.111816-.517578-.21582-.677734s-.257812-.286133-.461914-.37793-.481934-.182129-.833984-.27002v-.791992h8.483887v1.055664Z" style="fill: gray;"/>
    <path d="m470.871582,171.149902c0-.543945.12207-.996094.366211-1.355957s.574219-.644043.989746-.852051c.416016-.208008.88623-.355957,1.410156-.443848s1.065918-.132324,1.625977-.132324,1.102051.044434,1.625977.132324.996094.23584,1.416016.443848.751953.492188.996094.852051c.243652.359863.365723.812012.365723,1.355957s-.12207.996094-.365723,1.355957c-.244141.359863-.576172.644043-.996094.852051s-.89209.355957-1.416016.443848c-.523926.088379-1.065918.132324-1.625977.132324s-1.102051-.043945-1.625977-.132324c-.523926-.087891-.994141-.23584-1.410156-.443848-.415527-.208008-.745605-.492188-.989746-.852051s-.366211-.812012-.366211-1.355957Zm.912109,0c0,.616211.315918,1.070312.947754,1.361816.632324.29248,1.476074.437988,2.532227.437988.512207,0,.978027-.033691,1.397949-.101562s.77832-.169922,1.074219-.306152l-5.556152-2.364258c-.26416.26416-.395996.588379-.395996.972168Zm3.47998-1.799805c-.463867,0-.888184.027832-1.271973.083984-.384277.055664-.724121.139648-1.02002.251953l5.496094,2.315918c.191895-.240234.288086-.523926.288086-.852051,0-.416016-.144043-.755859-.432129-1.02002s-.693848-.459961-1.218262-.587891c-.523926-.12793-1.137695-.191895-1.841797-.191895Z" style="fill: gray;"/>
    <path d="m470.871582,163.733887c0-.543945.12207-.996094.366211-1.355957s.574219-.644043.989746-.852051c.416016-.208008.88623-.355957,1.410156-.443848s1.065918-.132324,1.625977-.132324,1.102051.044434,1.625977.132324.996094.23584,1.416016.443848.751953.492188.996094.852051c.243652.359863.365723.812012.365723,1.355957s-.12207.996094-.365723,1.355957c-.244141.359863-.576172.644043-.996094.852051s-.89209.355957-1.416016.443848c-.523926.088379-1.065918.132324-1.625977.132324s-1.102051-.043945-1.625977-.132324c-.523926-.087891-.994141-.23584-1.410156-.443848-.415527-.208008-.745605-.492188-.989746-.852051s-.366211-.812012-.366211-1.355957Zm.912109,0c0,.616211.315918,1.070312.947754,1.361816.632324.29248,1.476074.437988,2.532227.437988.512207,0,.978027-.033691,1.397949-.101562s.77832-.169922,1.074219-.306152l-5.556152-2.364258c-.26416.26416-.395996.588379-.395996.972168Zm3.47998-1.799805c-.463867,0-.888184.027832-1.271973.083984-.384277.055664-.724121.139648-1.02002.251953l5.496094,2.315918c.191895-.240234.288086-.523926.288086-.852051,0-.416016-.144043-.755859-.432129-1.02002s-.693848-.459961-1.218262-.587891c-.523926-.12793-1.137695-.191895-1.841797-.191895Z" style="fill: gray;"/>
    <path d="m482.067871,150.558594v1.007812h-8.904297v-.923828h.936035c-.751953-.463867-1.12793-1.132324-1.12793-2.004395,0-.624023.158203-1.133789.474121-1.529785s.731934-.689941,1.248047-.881836c.515625-.192383,1.078125-.288086,1.686035-.288086.599609,0,1.149902.098145,1.649902.293945.5.196289.897949.494141,1.193848.894043s.443848.899902.443848,1.5c0,.407715-.07373.766113-.22168,1.07373-.147949.308105-.38623.594238-.714355.858398h3.336426Zm-8.160156-1.752441c0,.416504.116211.752441.348145,1.008301s.531738.443848.899902.563965.755859.180176,1.164062.180176c.407715,0,.795898-.060059,1.164062-.180176.367676-.120117.667969-.308105.899902-.563965s.347656-.591797.347656-1.008301c0-.423828-.11377-.769531-.341797-1.037598s-.523926-.466309-.888184-.594238c-.36377-.12793-.745605-.191895-1.145996-.191895-.423828,0-.821777.063965-1.193848.191895s-.673828.326172-.905762.594238-.348145.61377-.348145,1.037598Z" style="fill: gray;"/>
    <path d="m473.163574,141.438477v-2.472168h.815918v2.472168h3.504395c.463867,0,.785645-.120117.96582-.360352.180176-.239746.27002-.587891.27002-1.043945,0-.208008-.009766-.399902-.030273-.575684-.019531-.17627-.049805-.340332-.089844-.492188h.875977c.056152.200195.094238.395996.114258.587891.019531.191895.029785.37207.029785.540039,0,.760254-.155762,1.340332-.467773,1.740234s-.808105.600098-1.488281.600098h-3.684082v1.811523h-.815918v-1.811523h-1.728027v-.996094h1.728027Z" style="fill: gray;"/>
  </g>
  <g>
    <line x1="465.185547" y1="191.487213" x2="465.185547" y2="127.217346" style="fill: none; stroke: gray; stroke-dasharray: 0 0 12 12; stroke-miterlimit: 10;"/>
    <polygon points="465.185547 195.017487 467.218262 190.042877 465.185547 191.223297 463.15332 190.042877 465.185547 195.017487" style="fill: gray;"/>
    <polygon points="465.185547 123.687073 467.218262 128.661682 465.185547 127.481262 463.15332 128.661682 465.185547 123.687073" style="fill: gray;"/>
  </g>
  <circle cx="600" cy="337.5" r="285.143348" style="fill: none; stroke: gray; stroke-miterlimit: 10;"/>
  <line x1="601.78326" y1="337.321674" x2="610.342911" y2="337.321674" style="fill: gray; stroke: gray; stroke-miterlimit: 10;"/>
  <line x1="602.139913" y1="52.356652" x2="610.699563" y2="52.356652" style="fill: gray; stroke: gray; stroke-miterlimit: 10;"/>
  <g>
    <path d="m621.755859,179.16748h-2.13623v3.624023h-1.07959l-5.244141-3.720215v-.923828h5.412109v-1.260254h.911621v1.260254h2.13623v1.02002Zm-3.047852,2.748047v-2.748047h-3.888184l3.888184,2.748047Z" style="fill: gray;"/>
    <path d="m613.175781,172.42334c0-.543945.12207-.996094.366211-1.355957s.574219-.644043.989746-.852051c.416016-.208008.88623-.355957,1.410156-.443848s1.065918-.132324,1.625977-.132324,1.102051.044434,1.625977.132324.996094.23584,1.416016.443848.751953.492188.996094.852051c.243652.359863.365723.812012.365723,1.355957s-.12207.996094-.365723,1.355957c-.244141.359863-.576172.644043-.996094.852051s-.89209.355957-1.416016.443848c-.523926.088379-1.065918.132324-1.625977.132324s-1.102051-.043945-1.625977-.132324c-.523926-.087891-.994141-.23584-1.410156-.443848-.415527-.208008-.745605-.492188-.989746-.852051s-.366211-.812012-.366211-1.355957Zm.912109,0c0,.616211.315918,1.070312.947754,1.361816.632324.29248,1.476074.437988,2.532227.437988.512207,0,.978027-.033691,1.397949-.101562s.77832-.169922,1.074219-.306152l-5.556152-2.364258c-.26416.26416-.395996.588379-.395996.972168Zm3.47998-1.799805c-.463867,0-.888184.027832-1.271973.083984-.384277.055664-.724121.139648-1.02002.251953l5.496094,2.315918c.191895-.240234.288086-.523926.288086-.852051,0-.416016-.144043-.755859-.432129-1.02002s-.693848-.459961-1.218262-.587891c-.523926-.12793-1.137695-.191895-1.841797-.191895Z" style="fill: gray;"/>
    <path d="m613.175781,165.007324c0-.543945.12207-.996094.366211-1.355957s.574219-.644043.989746-.852051c.416016-.208008.88623-.355957,1.410156-.443848s1.065918-.132324,1.625977-.132324,1.102051.044434,1.625977.132324.996094.23584,1.416016.443848.751953.492188.996094.852051c.243652.359863.365723.812012.365723,1.355957s-.12207.996094-.365723,1.355957c-.244141.359863-.576172.644043-.996094.852051s-.89209.355957-1.416016.443848c-.523926.088379-1.065918.132324-1.625977.132324s-1.102051-.043945-1.625977-.132324c-.523926-.087891-.994141-.23584-1.410156-.443848-.415527-.208008-.745605-.492188-.989746-.852051s-.366211-.812012-.366211-1.355957Zm.912109,0c0,.616211.315918,1.070312.947754,1.361816.632324.29248,1.476074.437988,2.532227.437988.512207,0,.978027-.033691,1.397949-.101562s.77832-.169922,1.074219-.306152l-5.556152-2.364258c-.26416.26416-.395996.588379-.395996.972168Zm3.47998-1.799805c-.463867,0-.888184.027832-1.271973.083984-.384277.055664-.724121.139648-1.02002.251953l5.496094,2.315918c.191895-.240234.288086-.523926.288086-.852051,0-.416016-.144043-.755859-.432129-1.02002s-.693848-.459961-1.218262-.587891c-.523926-.12793-1.137695-.191895-1.841797-.191895Z" style="fill: gray;"/>
    <path d="m624.37207,151.832031v1.007812h-8.904297v-.923828h.936035c-.751953-.463867-1.12793-1.132324-1.12793-2.004395,0-.624023.158203-1.133789.474121-1.529785s.731934-.689941,1.248047-.881836c.515625-.192383,1.078125-.288086,1.686035-.288086.599609,0,1.149902.098145,1.649902.293945.5.196289.897949.494141,1.193848.894043s.443848.899902.443848,1.5c0,.407715-.07373.766113-.22168,1.07373-.147949.308105-.38623.594238-.714355.858398h3.336426Zm-8.160156-1.752441c0,.416504.116211.752441.348145,1.008301s.531738.443848.899902.563965.755859.180176,1.164062.180176c.407715,0,.795898-.060059,1.164062-.180176.367676-.120117.667969-.308105.899902-.563965s.347656-.591797.347656-1.008301c0-.423828-.11377-.769531-.341797-1.037598s-.523926-.466309-.888184-.594238c-.36377-.12793-.745605-.191895-1.145996-.191895-.423828,0-.821777.063965-1.193848.191895s-.673828.326172-.905762.594238-.348145.61377-.348145,1.037598Z" style="fill: gray;"/>
    <path d="m615.467773,142.711914v-2.472168h.815918v2.472168h3.504395c.463867,0,.785645-.120117.96582-.360352.180176-.239746.27002-.587891.27002-1.043945,0-.208008-.009766-.399902-.030273-.575684-.019531-.17627-.049805-.340332-.089844-.492188h.875977c.056152.200195.094238.395996.114258.587891.019531.191895.029785.37207.029785.540039,0,.760254-.155762,1.340332-.467773,1.740234s-.808105.600098-1.488281.600098h-3.684082v1.811523h-.815918v-1.811523h-1.728027v-.996094h1.728027Z" style="fill: gray;"/>
  </g>
  <g>
    <line x1="607.489746" y1="333.791412" x2="607.489746" y2="56.24358" style="fill: none; stroke: gray; stroke-miterlimit: 10;"/>
    <polygon points="607.489746 337.321686 609.522461 332.347076 607.489746 333.527496 605.45752 332.347076 607.489746 337.321686" style="fill: gray;"/>
    <polygon points="607.489746 52.713303 609.522461 57.687916 607.489746 56.507496 605.45752 57.687916 607.489746 52.713303" style="fill: gray;"/>
  </g>
  <rect x="457.695815" y="195.017489" width="284.60837" height="284.60837" style="fill: none; stroke: gray; stroke-miterlimit: 10;"/>
  <rect x="386.365397" y="123.687071" width="427.269207" height="427.269207" style="fill: none; stroke: gray; stroke-miterlimit: 10;"/>
  <rect x="315.034978" y="52.356652" width="569.930044" height="569.930044" style="fill: none; stroke: gray; stroke-miterlimit: 10;"/>
  <g>
    <polyline points="386.365479 117.687073 386.365479 123.687073 380.365479 123.687073" style="fill: none; stroke: gray; stroke-miterlimit: 10;"/>
    <line x1="368.499268" y1="123.687073" x2="326.968018" y2="123.687073" style="fill: none; stroke: gray; stroke-dasharray: 0 0 11.866084 11.866084; stroke-miterlimit: 10;"/>
    <polyline points="321.034912 123.687073 315.034912 123.687073 315.034912 117.687073" style="fill: none; stroke: gray; stroke-miterlimit: 10;"/>
    <line x1="315.034912" y1="105.820984" x2="315.034912" y2="64.289696" style="fill: none; stroke: gray; stroke-dasharray: 0 0 11.866084 11.866084; stroke-miterlimit: 10;"/>
    <polyline points="315.034912 58.356651 315.034912 52.356651 321.034912 52.356651" style="fill: none; stroke: gray; stroke-miterlimit: 10;"/>
    <line x1="332.901123" y1="52.356651" x2="374.432373" y2="52.356651" style="fill: none; stroke: gray; stroke-dasharray: 0 0 11.866084 11.866084; stroke-miterlimit: 10;"/>
    <polyline points="380.365479 52.356651 386.365479 52.356651 386.365479 58.356651" style="fill: none; stroke: gray; stroke-miterlimit: 10;"/>
    <line x1="386.365479" y1="70.222733" x2="386.365479" y2="111.754028" style="fill: none; stroke: gray; stroke-dasharray: 0 0 11.866084 11.866084; stroke-miterlimit: 10;"/>
  </g>
  <g>
    <polyline points="457.695801 189.017487 457.695801 195.017487 451.695801 195.017487" style="fill: none; stroke: gray; stroke-miterlimit: 10;"/>
    <line x1="439.829834" y1="195.017487" x2="398.29834" y2="195.017487" style="fill: none; stroke: gray; stroke-dasharray: 0 0 11.866084 11.866084; stroke-miterlimit: 10;"/>
    <polyline points="392.365479 195.017487 386.365479 195.017487 386.365479 189.017487" style="fill: none; stroke: gray; stroke-miterlimit: 10;"/>
    <line x1="386.365479" y1="177.151413" x2="386.365479" y2="135.620117" style="fill: none; stroke: gray; stroke-dasharray: 0 0 11.866084 11.866084; stroke-miterlimit: 10;"/>
    <polyline points="386.365479 129.687073 386.365479 123.687073 392.365479 123.687073" style="fill: none; stroke: gray; stroke-miterlimit: 10;"/>
    <line x1="404.231445" y1="123.687073" x2="445.762695" y2="123.687073" style="fill: none; stroke: gray; stroke-dasharray: 0 0 11.866084 11.866084; stroke-miterlimit: 10;"/>
    <polyline points="451.695801 123.687073 457.695801 123.687073 457.695801 129.687073" style="fill: none; stroke: gray; stroke-miterlimit: 10;"/>
    <line x1="457.695801" y1="141.553162" x2="457.695801" y2="183.084442" style="fill: none; stroke: gray; stroke-dasharray: 0 0 11.866084 11.866084; stroke-miterlimit: 10;"/>
  </g>
  <g>
    <line x1="598.21674" y1="335.538414" x2="601.78326" y2="339.104935" style="fill: none; stroke: gray; stroke-miterlimit: 10;"/>
    <line x1="598.21674" y1="339.104935" x2="601.78326" y2="335.538414" style="fill: none; stroke: gray; stroke-miterlimit: 10;"/>
  </g>
  <g>
    <line x1="600" y1="52" x2="600" y2="58" style="fill: none; stroke: gray; stroke-miterlimit: 10;"/>
    <line x1="600" y1="69.883553" x2="600" y2="325.379913" style="fill: none; stroke: gray; stroke-dasharray: 0 0 11.883551 11.883551; stroke-miterlimit: 10;"/>
    <line x1="600" y1="331.321686" x2="600" y2="337.321686" style="fill: none; stroke: gray; stroke-miterlimit: 10;"/>
  </g>
</svg>