<?xml version="1.0" encoding="UTF-8"?>
<svg id="_01_Logomark_-_Construction" data-name="01 Logomark - Construction" xmlns="http://www.w3.org/2000/svg" viewBox="0 0 1200 675">
  <g>
    <path d="m239.864114,278.853906h13.5526l25.525968,65.526825,25.526611-65.526825h13.42089v92.105828h-11.315463v-69.342549l-23.815671,60.921486h-7.763801l-23.683961-60.921486v69.342549h-11.447173v-92.105828Z" style="fill: gray;"/>
    <path d="m334.209327,351.88047c0-14.210505,11.315463-21.710565,29.342335-21.710565h11.578883v-2.894721c0-10.131683-6.18457-13.947407-14.079438-13.947407s-12.367855,4.47363-14.473924,10.789589l-9.736233-2.236815c1.842007-11.184396,11.842302-18.289649,24.210157-18.289649,14.473924,0,24.868705,8.684162,24.868705,24.868384v42.500448h-8.552774l-1.973717-9.605166c-3.946791,6.183928-10.525848,10.657558-20.657852,10.657558-11.184396,0-20.526142-6.052861-20.526142-20.131656Zm40.921218-10.263071v-2.105427h-11.184396c-12.500207,0-18.421358,4.47363-18.421358,12.236788,0,6.842476,4.34192,10.526491,11.184396,10.526491,8.158287,0,18.421358-5.789441,18.421358-20.657852Z" style="fill: gray;"/>
    <path d="m406.972151,350.696368v-36.315878h-11.184396v-9.736875h11.184396v-19.868558l10.920977-6.973543v26.842101h17.763453v9.736875h-17.763453v37.105494c0,7.631449,3.552948,10.789267,9.210679,10.789267,2.499913,0,5.131536-.394486,7.631449-1.842007l2.763332,9.210679c-3.421238,1.710298-7.499739,2.368203-11.316106,2.368203-11.447173,0-19.210331-6.579057-19.210331-21.315758Z" style="fill: gray;"/>
    <path d="m449.078755,277.801514h10.920977v40.131603c4.47363-9.473777,13.5526-14.342215,22.763279-14.342215,12.894694,0,20.657852,7.368351,20.657852,21.184369v46.184463h-10.78991v-43.553162c0-9.078648-4.210211-14.078796-12.499565-14.078796-10.6582,0-20.131656,10.657879-20.131656,29.473724v28.158234h-10.920977v-93.15822Z" style="fill: gray;"/>
    <path d="m517.896073,353.985897l9.078327-4.868759c2.500555,7.763158,6.973543,13.158113,15.658669,13.158113,6.315637,0,10.525848-3.552305,10.525848-9.999652,0-6.052861-6.183928-9.07897-14.342215-12.105721-9.473456-3.420595-16.447641-8.421064-16.447641-18.815845,0-10.526169,8.289997-17.763131,19.342683-17.763131,8.683841,0,14.999478,3.552626,19.210331,10.394781l-7.105253,6.315637c-3.289528-5.131536-7.368672-6.973543-12.236788-6.973543-4.737049,0-8.684483,2.894721-8.684483,8.026256,0,5.000147,4.079144,7.63177,14.737344,11.578883,8.683841,3.158461,16.184222,8.816193,16.184222,18.947554,0,12.500207-8.421706,20.131656-21.184048,20.131656-14.605634,0-22.368792-9.07897-24.736996-18.026229Z" style="fill: gray;"/>
    <path d="m573.94912,337.801674c0-17.763453,10.131362-34.210773,30.394727-34.210773,13.5526,0,23.026055,6.052539,27.763105,18.552747l-9.736875,3.815724c-3.289528-8.026256-9.07897-12.631596-18.026229-12.631596-13.026403,0-19.079264,10.920977-19.079264,24.473898,0,13.42089,6.052861,24.473576,19.079264,24.473576,8.94726,0,14.473924-4.47363,18.026229-12.631275l9.736875,3.815724c-4.737049,12.236788-14.210505,18.552426-27.763105,18.552426-20.263366,0-30.394727-16.446999-30.394727-34.210452Z" style="fill: gray;"/>
    <path d="m642.371309,351.88047c0-14.210505,11.316748-21.710565,29.342335-21.710565h11.578883v-2.894721c0-10.131683-6.183928-13.947407-14.078153-13.947407-7.894868,0-12.36914,4.47363-14.473924,10.789589l-9.737518-2.236815c1.84265-11.184396,11.842302-18.289649,24.211442-18.289649,14.472639,0,24.868063,8.684162,24.868063,24.868384v42.500448h-8.552774l-1.973717-9.605166c-3.947434,6.183928-10.526491,10.657558-20.657852,10.657558-11.183754,0-20.526785-6.052861-20.526785-20.131656Zm40.921218-10.263071v-2.105427h-11.183754c-12.500207,0-18.420716,4.47363-18.420716,12.236788,0,6.842476,4.34192,10.526491,11.183754,10.526491,8.157645,0,18.420716-5.789441,18.420716-20.657852Z" style="fill: gray;"/>
    <path d="m712.371443,304.643615h10.920977v8.552452c2.895042-4.736728,10.526491-9.605166,19.342683-9.605166,19.47375,0,29.736822,14.737022,29.736822,34.210773s-10.263071,34.210452-29.736822,34.210452c-7.500381,0-15.395249-3.552305-19.342683-9.341746v35.131134h-10.920977v-93.157899Zm48.685019,33.15806c0-14.342215-7.236962-24.473898-19.47375-24.473898s-19.342683,10.131683-19.342683,24.473898c0,14.210505,7.105895,24.473576,19.342683,24.473576s19.47375-10.263071,19.47375-24.473576Z" style="fill: gray;"/>
    <path d="m844.345775,339.511972h-48.816086c.526839,13.158113,7.500381,22.763279,19.47375,22.763279,9.341746,0,14.473924-3.947434,18.946912-12.894694l9.210679,3.947434c-6.315637,13.026403-14.999478,18.684135-28.42101,18.684135-19.210331,0-30.262375-16.052513-30.262375-34.210452,0-18.421358,10.920977-34.210773,30.262375-34.210773,18.684778,0,29.605755,14.210505,29.605755,31.315731v4.60534Zm-11.053329-9.342068c-1.577946-9.868585-7.631449-16.842128-18.552426-16.842128-8.683841,0-16.184222,5.526343-18.552426,16.842128h37.104851Z" style="fill: gray;"/>
    <path d="m854.477779,353.985897l9.078327-4.868759c2.500555,7.763158,6.974828,13.158113,15.658669,13.158113,6.315637,0,10.526491-3.552305,10.526491-9.999652,0-6.052861-6.18457-9.07897-14.342857-12.105721-9.472813-3.420595-16.446356-8.421064-16.446356-18.815845,0-10.526169,8.289354-17.763131,19.341398-17.763131,8.683841,0,15.000763,3.552626,19.210331,10.394781l-7.10461,6.315637c-3.289528-5.131536-7.369314-6.973543-12.236788-6.973543-4.737692,0-8.685126,2.894721-8.685126,8.026256,0,5.000147,4.079786,7.63177,14.737344,11.578883,8.683841,3.158461,16.184222,8.816193,16.184222,18.947554,0,12.500207-8.420421,20.131656-21.184048,20.131656-14.604992,0-22.368792-9.07897-24.736996-18.026229Z" style="fill: gray;"/>
    <path d="m909.74057,303.459192c0-14.605313,10.920977-25.657678,25.132767-25.657678,14.341572,0,25.262549,11.052365,25.262549,25.657678s-10.920977,25.657999-25.262549,25.657999c-14.21179,0-25.132767-11.052687-25.132767-25.657999Zm43.947327,0c0-11.184075-7.762516-19.473429-18.81456-19.473429-10.922262,0-18.684778,8.289354-18.684778,19.473429,0,11.184396,7.762516,19.47375,18.684778,19.47375,11.052044,0,18.81456-8.421064,18.81456-19.47375Zm-28.683145-14.078796h10.657558c6.052218,0,9.210679,3.157819,9.210679,8.026256,0,4.47363-3.026109,6.973864-6.053503,7.63177l7.369314,12.368177h-6.447989l-6.841191-12.105079h-1.711583v12.105079h-6.183285v-28.026203Zm10.394138,11.184075c2.368203,0,3.552948-1.315811,3.552948-3.157819,0-1.973717-1.184744-3.157819-3.552948-3.157819h-4.210853v6.315637h4.210853Z" style="fill: gray;"/>
  </g>
  <g>
    <path d="m537.359863,227.315918h-3.599609v2.820312h3.995605v.983887h-5.111816v-8.388184h4.895996v.984375h-3.779785v2.615723h3.599609v.983887Z" style="fill: gray;"/>
    <path d="m546.912109,231.120117l-2.112305-3.395996-2.111816,3.395996h-1.28418l2.808105-4.295898-2.615723-4.092285h1.307617l1.956055,3.15625,1.944336-3.15625h1.271973l-2.62793,4.056152,2.771973,4.332031h-1.308105Z" style="fill: gray;"/>
    <path d="m557.819824,225.072266h-1.140137c-.119629-.456055-.307617-.828125-.563965-1.116211-.255859-.288086-.651855-.432129-1.187988-.432129-.527832,0-.953613.144043-1.277832.432129s-.558105.689941-.702148,1.206055-.21582,1.109863-.21582,1.782227c0,1.135742.187988,1.987793.563965,2.555664.375977.568359.919922.852051,1.631836.852051.560059,0,.976074-.175781,1.248047-.527832s.468262-.868164.588379-1.54834h1.139648c-.111816,1.016113-.432129,1.780273-.959961,2.29248-.527832.511719-1.204102.767578-2.027832.767578-.728027,0-1.340332-.177734-1.835938-.533691-.496094-.355957-.87207-.862305-1.12793-1.518066-.256348-.655762-.384277-1.432129-.384277-2.328125,0-.600098.062012-1.167969.186035-1.704102.124023-.535645.317871-1.005859.582031-1.409668s.611816-.722168,1.043945-.954102.959961-.348145,1.583984-.348145c.560059,0,1.036133.112305,1.428223.335938.391602.224121.708008.526367.947754.90625.240234.379883.399902.810059.47998,1.290039Z" style="fill: gray;"/>
    <path d="m562.223633,222.731934h1.116211v7.404297h3.996094v.983887h-5.112305v-8.388184Z" style="fill: gray;"/>
    <path d="m576.05957,228.492188v-5.760254h1.116211v5.916016c0,.647949-.134277,1.168457-.401855,1.560059-.268066.39209-.624023.678223-1.068359.85791-.443848.180176-.929688.27002-1.458008.27002-.543945,0-1.036133-.091797-1.475586-.275879-.44043-.184082-.788086-.474121-1.044434-.870117-.255859-.395996-.383789-.909668-.383789-1.541992v-5.916016h1.116211v5.760254c0,.487793.081543.866211.245605,1.133789.164062.268066.382324.456055.654297.563965.271973.108398.567871.162109.887695.162109.328125,0,.62793-.055664.900391-.167969.271484-.111816.491699-.301758.659668-.569824s.251953-.64209.251953-1.12207Z" style="fill: gray;"/>
    <path d="m586.991699,225.15625h-1.080078c-.016113-.47998-.167969-.87793-.456055-1.194336-.288086-.315918-.724121-.473633-1.308105-.473633-.575684,0-1.013672.12793-1.313965.383789-.299805.256348-.449707.572266-.449707.948242,0,.671875.379883,1.095703,1.139648,1.271973l1.716309.395996c.655762.151855,1.151855.427734,1.487793.827637.335938.400391.503906.87207.503906,1.416016,0,.552246-.125977,1.022461-.37793,1.410156-.251953.388184-.599609.684082-1.043945.888184-.443848.203613-.961914.305664-1.553711.305664-1.040039,0-1.834473-.257812-2.382324-.773926s-.830078-1.22168-.845703-2.117676h1.080078c.007812.560059.195801,1.015625.563965,1.367676.367676.352051.903809.52832,1.60791.52832.631836,0,1.09375-.13623,1.385742-.408203s.437988-.620117.437988-1.043945c0-.375977-.102051-.671875-.305664-.888184-.204102-.21582-.51416-.37207-.930176-.467773l-1.740234-.408203c-.60791-.144043-1.071777-.401855-1.391602-.773926-.320312-.37207-.47998-.846191-.47998-1.421875,0-.472168.119629-.88623.359863-1.242188.239746-.355957.577637-.635742,1.01416-.839844.435547-.204102.953613-.306152,1.553711-.306152.583984,0,1.085938.10791,1.505859.324219.42041.21582.742188.509766.966309.881836.223633.37207.335938.790039.335938,1.253906v.15625Z" style="fill: gray;"/>
    <path d="m591.551758,231.120117v-.936035h1.775879v-6.516113h-1.775879v-.936035h4.691895v.936035h-1.788086v6.516113h1.788086v.936035h-4.691895Z" style="fill: gray;"/>
    <path d="m603.708008,222.540039c1.032227,0,1.833984.38623,2.405762,1.158203.572266.771973.858398,1.854004.858398,3.246094,0,1.391602-.286133,2.47168-.858398,3.239746-.571777.768066-1.373535,1.151855-2.405762,1.151855s-1.833984-.383789-2.40625-1.151855c-.571777-.768066-.85791-1.848145-.85791-3.239746,0-1.39209.286133-2.474121.85791-3.246094.572266-.771973,1.374023-1.158203,2.40625-1.158203Zm0,.983887c-.65625,0-1.169922.302246-1.541992.90625s-.558105,1.441895-.558105,2.51416c0,1.063965.186035,1.897949.558105,2.501953s.885742.905762,1.541992.905762c.664062,0,1.179688-.301758,1.547852-.905762s.552246-1.437988.552246-2.501953c0-1.072266-.184082-1.910156-.552246-2.51416s-.883789-.90625-1.547852-.90625Z" style="fill: gray;"/>
    <path d="m615.288086,222.731934h1.031738v8.388184h-1.248047l-3.299805-6.708008h-.012207v6.708008h-1.031738v-8.388184h1.211914l3.335938,6.768066h.012207v-6.768066Z" style="fill: gray;"/>
    <path d="m630.623535,222.731934h5.220215v1.008301l-4.248047,6.395996h4.271973v.983887h-5.580078v-.983887l4.296387-6.419922h-3.960449v-.984375Z" style="fill: gray;"/>
    <path d="m642.97168,222.540039c1.032227,0,1.833984.38623,2.405762,1.158203.572266.771973.858398,1.854004.858398,3.246094,0,1.391602-.286133,2.47168-.858398,3.239746-.571777.768066-1.373535,1.151855-2.405762,1.151855s-1.833984-.383789-2.40625-1.151855c-.571777-.768066-.85791-1.848145-.85791-3.239746,0-1.39209.286133-2.474121.85791-3.246094.572266-.771973,1.374023-1.158203,2.40625-1.158203Zm0,.983887c-.65625,0-1.169922.302246-1.541992.90625s-.558105,1.441895-.558105,2.51416c0,1.063965.186035,1.897949.558105,2.501953s.885742.905762,1.541992.905762c.664062,0,1.179688-.301758,1.547852-.905762s.552246-1.437988.552246-2.501953c0-1.072266-.184082-1.910156-.552246-2.51416s-.883789-.90625-1.547852-.90625Z" style="fill: gray;"/>
    <path d="m654.551758,222.731934h1.031738v8.388184h-1.248047l-3.299805-6.708008h-.012207v6.708008h-1.031738v-8.388184h1.211914l3.335938,6.768066h.012207v-6.768066Z" style="fill: gray;"/>
    <path d="m664.967285,227.315918h-3.599609v2.820312h3.995605v.983887h-5.111816v-8.388184h4.895996v.984375h-3.779785v2.615723h3.599609v.983887Z" style="fill: gray;"/>
  </g>
  <g>
    <path d="m832.722168,266.849609l-.744141-2.507812h-2.89209l-.743652,2.507812h-1.152344l2.652344-8.388184h1.403809l2.640137,8.388184h-1.164062Zm-3.359863-3.443848h2.339844l-1.17627-3.936035-1.163574,3.936035Z" style="fill: gray;"/>
    <path d="m836.297852,269.46582h-1.007812v-8.904297h.923828v.936035c.463867-.751953,1.132324-1.12793,2.004395-1.12793.624023,0,1.133789.158203,1.529785.474121s.689941.731934.881836,1.248047c.192383.515625.288086,1.078125.288086,1.686035,0,.599609-.098145,1.149902-.293945,1.649902-.196289.5-.494141.897949-.894043,1.193848s-.899902.443848-1.5.443848c-.407715,0-.766113-.07373-1.07373-.22168-.308105-.147949-.594238-.38623-.858398-.714355v3.336426Zm1.752441-8.160156c-.416504,0-.752441.116211-1.008301.348145s-.443848.531738-.563965.899902-.180176.755859-.180176,1.164062c0,.407715.060059.795898.180176,1.164062.120117.367676.308105.667969.563965.899902s.591797.347656,1.008301.347656c.423828,0,.769531-.11377,1.037598-.341797s.466309-.523926.594238-.888184c.12793-.36377.191895-.745605.191895-1.145996,0-.423828-.063965-.821777-.191895-1.193848s-.326172-.673828-.594238-.905762-.61377-.348145-1.037598-.348145Z" style="fill: gray;"/>
    <path d="m848.105957,264.905762c-.104004.655762-.394043,1.180176-.869629,1.571777-.476074.39209-1.08252.587891-1.818359.587891-.631836,0-1.160156-.14209-1.583984-.425781s-.742188-.673828-.954102-1.169922-.317871-1.063965-.317871-1.704102c0-.704102.120117-1.308105.359863-1.812012.240234-.503906.576172-.894043,1.008301-1.169922s.936035-.414062,1.511719-.414062c.648438,0,1.178223.151855,1.590332.456055.411621.304199.71582.728027.912109,1.271973.195801.543945.293945,1.180176.293945,1.907715h-4.632324c.016113.616211.17627,1.126465.47998,1.530273.304199.403809.760254.605957,1.368164.605957.82373,0,1.37207-.412109,1.644043-1.23584h1.007812Zm-2.675781-3.612305c-.560059,0-.988281.184082-1.28418.552246s-.467773.815918-.516113,1.34375h3.52832c0-.351562-.070312-.669922-.209961-.953613-.140137-.28418-.338379-.512207-.594238-.684082s-.563965-.258301-.923828-.258301Z" style="fill: gray;"/>
    <path d="m850.565918,266.849609v-6.288086h.924316v1.355957c.208008-.447754.507812-.815918.899902-1.104004s.84375-.431641,1.355957-.431641c.720215,0,1.27002.184082,1.649902.551758.379883.368164.598145.864258.654297,1.487793h-.996094c-.072266-.375488-.218262-.663574-.437988-.86377-.220215-.199707-.541992-.299805-.966309-.299805-.416016,0-.779785.109863-1.091797.32959-.312012.220215-.554199.520508-.726074.900391s-.257812.817871-.257812,1.313965v3.047852h-1.008301Z" style="fill: gray;"/>
    <path d="m862.890137,262.637695h-1.007812c-.056152-.416016-.216309-.744141-.47998-.983887-.26416-.240234-.616211-.360352-1.056152-.360352-.432129,0-.780273.120117-1.043945.360352-.26416.239746-.456055.549805-.576172.929688-.120117.380371-.180176.77832-.180176,1.194336s.063965.803711.192383,1.163574c.12793.360352.327637.650391.600098.870117.271484.220215.615723.330078,1.031738.330078.888184,0,1.416016-.496094,1.583984-1.487793h1.007812c-.063965.751953-.321777,1.341797-.773926,1.77002-.452148.427734-1.065918.641602-1.841797.641602-.60791,0-1.124023-.145996-1.547852-.437988-.424316-.291992-.746094-.685547-.966309-1.181641s-.330078-1.052246-.330078-1.667969c0-.632324.108398-1.204102.324219-1.716309.21582-.511719.535645-.921875.959961-1.22998.423828-.307617.948242-.461914,1.571777-.461914.768066,0,1.37793.211914,1.830078.635742.452148.424316.686035.968262.702148,1.632324Z" style="fill: gray;"/>
    <path d="m870.125488,260.561523v6.288086h-.899902v-.936035c-.288086.416016-.59375.712402-.917969.888184-.32373.175781-.718262.263672-1.182129.263672-.551758,0-1.003906-.124023-1.355957-.371582-.431641-.312012-.647949-.760254-.647949-1.344238v-4.788086h.996094v4.39209c0,.424316.139648.744141.419922.959961.231934.184082.523926.275879.875977.275879.472168,0,.868164-.171875,1.187988-.515625.352051-.375977.52832-.916016.52832-1.620117v-3.492188h.995605Z" style="fill: gray;"/>
    <path d="m879.833496,266.849609v-8.388184h3.060059c.503906,0,.959961.094238,1.368164.282227s.731934.467773.972168.839844c.239746.37207.359863.833984.359863,1.38623,0,.551758-.120117,1.013672-.359863,1.385742-.240234.37207-.563965.652344-.972168.840332s-.864258.281738-1.368164.281738h-1.967773v3.37207h-1.092285Zm1.092285-4.319824h1.82373c.536133,0,.954102-.140137,1.254395-.42041.299805-.279785.449707-.659668.449707-1.139648s-.149902-.859863-.449707-1.140137c-.300293-.279785-.718262-.419922-1.254395-.419922h-1.82373v3.120117Z" style="fill: gray;"/>
    <path d="m887.645508,266.849609v-6.288086h.924316v1.355957c.208008-.447754.507812-.815918.899902-1.104004s.84375-.431641,1.355957-.431641c.720215,0,1.27002.184082,1.649902.551758.379883.368164.598145.864258.654297,1.487793h-.996094c-.072266-.375488-.218262-.663574-.437988-.86377-.220215-.199707-.541992-.299805-.966309-.299805-.416016,0-.779785.109863-1.091797.32959-.312012.220215-.554199.520508-.726074.900391s-.257812.817871-.257812,1.313965v3.047852h-1.008301Z" style="fill: gray;"/>
    <path d="m897.281738,260.369629c.647949,0,1.182129.145996,1.602051.437988s.731934.689941.936035,1.193848.305664,1.076172.305664,1.716309c0,.631836-.101562,1.20166-.305664,1.709961-.204102.507812-.516113.907715-.936035,1.199707s-.954102.437988-1.602051.437988c-.640137,0-1.171875-.145996-1.596191-.437988-.423828-.291992-.737793-.691895-.941895-1.199707-.204102-.508301-.306152-1.078125-.306152-1.709961,0-.640137.102051-1.212402.306152-1.716309s.518066-.901855.941895-1.193848c.424316-.291992.956055-.437988,1.596191-.437988Zm0,.923828c-.424316,0-.768066.112305-1.032227.335938-.263672.224121-.458008.520508-.581543.888184-.124512.368164-.186035.768066-.186035,1.200195,0,.423828.061523.821777.186035,1.193848.123535.37207.317871.669922.581543.894043.26416.224121.60791.335938,1.032227.335938.423828,0,.768066-.111816,1.032227-.335938.263672-.224121.45752-.521973.581543-.894043s.186035-.77002.186035-1.193848c0-.432129-.062012-.832031-.186035-1.200195-.124023-.367676-.317871-.664062-.581543-.888184-.26416-.223633-.608398-.335938-1.032227-.335938Z" style="fill: gray;"/>
    <path d="m912.437988,263.405762h-1.812012v3.443848h-1.092285v-8.388184h2.939941c.808105,0,1.456055.188477,1.944336.563965.487793.376465.731934.952148.731934,1.728027,0,.488281-.10791.898438-.324219,1.22998-.21582.332031-.571777.622559-1.067871.870117.295898.120117.523926.251953.684082.395996.159668.144043.275879.338379.347656.582031.072266.244141.120117.569824.144043.978027l.036133.624023c.016113.200195.047852.408203.096191.624023.047852.21582.159668.388184.335938.516113v.275879h-1.236328c-.087891-.184082-.161621-.395996-.22168-.63623-.060059-.239746-.089844-.495605-.089844-.767578v-.52832c0-.495605-.112305-.871582-.336426-1.12793-.224121-.255859-.583984-.383789-1.07959-.383789Zm-1.812012-3.996094v3.047852h1.631836c.543945,0,.972168-.117676,1.28418-.354004.312012-.23584.467773-.645996.467773-1.22998,0-.511719-.154297-.883789-.461914-1.115723-.308105-.231934-.738281-.348145-1.290039-.348145h-1.631836Z" style="fill: gray;"/>
    <path d="m922.265137,264.905762c-.104004.655762-.394043,1.180176-.869629,1.571777-.476074.39209-1.08252.587891-1.818359.587891-.631836,0-1.160156-.14209-1.583984-.425781s-.742188-.673828-.954102-1.169922-.317871-1.063965-.317871-1.704102c0-.704102.120117-1.308105.359863-1.812012.240234-.503906.576172-.894043,1.008301-1.169922s.936035-.414062,1.511719-.414062c.648438,0,1.178223.151855,1.590332.456055.411621.304199.71582.728027.912109,1.271973.195801.543945.293945,1.180176.293945,1.907715h-4.632324c.016113.616211.17627,1.126465.47998,1.530273.304199.403809.760254.605957,1.368164.605957.82373,0,1.37207-.412109,1.644043-1.23584h1.007812Zm-2.675781-3.612305c-.560059,0-.988281.184082-1.28418.552246s-.467773.815918-.516113,1.34375h3.52832c0-.351562-.070312-.669922-.209961-.953613-.140137-.28418-.338379-.512207-.594238-.684082s-.563965-.258301-.923828-.258301Z" style="fill: gray;"/>
    <path d="m926.789062,269.46582c-.679688,0-1.255859-.150391-1.727539-.450195-.472168-.299805-.752441-.782227-.840332-1.445801h1.043945c.144043.703613.660156,1.055664,1.54834,1.055664.631836,0,1.085938-.173828,1.361816-.521973s.414062-.941895.414062-1.781738v-.360352c-.184082.368164-.437988.644043-.762207.828125-.32373.184082-.693848.275879-1.109863.275879-.616211,0-1.12793-.147949-1.536133-.443848-.407715-.295898-.709961-.699707-.905762-1.211914-.196289-.511719-.293945-1.087891-.293945-1.728027,0-.616211.099609-1.173828.299805-1.673828.199707-.5.501953-.897949.90625-1.194336.403809-.295898.901855-.443848,1.493652-.443848.855957,0,1.5.324219,1.932129.972168v-.780273h.996094v5.268066c0,.87207-.072266,1.536133-.216309,1.992188-.175781.543945-.483887.953613-.923828,1.22998-.439941.275879-1,.414062-1.680176.414062Zm.072266-3.336426c.423828,0,.763672-.117676,1.02002-.354004.255859-.23584.441895-.535645.558105-.899902.115723-.36377.173828-.737793.173828-1.12207,0-.423828-.060059-.821777-.180176-1.193848-.119629-.37207-.308105-.673828-.563965-.905762s-.595703-.348145-1.02002-.348145c-.39209,0-.724121.105957-.995605.317871-.272461.211914-.478516.5-.618164.864258-.140137.36377-.209961.773926-.209961,1.22998,0,.423828.063965.819824.191895,1.187988.12793.367676.325684.664062.594238.887695.267578.224121.617676.335938,1.049805.335938Z" style="fill: gray;"/>
    <path d="m936.869141,260.561523v6.288086h-.899902v-.936035c-.288086.416016-.59375.712402-.917969.888184-.32373.175781-.718262.263672-1.182129.263672-.551758,0-1.003906-.124023-1.355957-.371582-.431641-.312012-.647949-.760254-.647949-1.344238v-4.788086h.996094v4.39209c0,.424316.139648.744141.419922.959961.231934.184082.523926.275879.875977.275879.472168,0,.868164-.171875,1.187988-.515625.352051-.375977.52832-.916016.52832-1.620117v-3.492188h.995605Z" style="fill: gray;"/>
    <path d="m942.617188,258.101562v7.932129h1.932129v.815918h-5.076172v-.815918h2.172363v-7.116211h-2.172363v-.815918h3.144043Z" style="fill: gray;"/>
    <path d="m952.313477,266.189453v.756348c-.248047.071777-.448242.10791-.600098.10791-.671875,0-1.043945-.315918-1.116211-.948242-.352051.344238-.695801.590332-1.031738.738281s-.704102.22168-1.104004.22168c-.60791,0-1.102051-.161621-1.481934-.48584-.380371-.324219-.570312-.777832-.570312-1.361816,0-.432129.092285-.77832.276367-1.038086.183594-.259766.409668-.456055.677734-.587891.268066-.132324.521973-.218262.762207-.258301.111816-.015625.283691-.041992.515625-.078125.231934-.035645.523926-.077637.876465-.125977.399902-.055664.677734-.131836.833984-.228027.155762-.095703.233887-.243652.233887-.443848v-.21582c0-.624023-.47998-.936035-1.439941-.936035-.464355,0-.814453.089844-1.050293.27002-.23584.179688-.374023.461914-.414062.845703h-1.007812c.016113-.727539.253906-1.249512.713867-1.565918.459961-.315918,1.062012-.473633,1.806152-.473633.775879,0,1.36377.145996,1.76416.437988.399902.291992.599609.717773.599609,1.277832v3.624023c0,.328125.180176.491699.540039.491699.063965,0,.13623-.007812.216309-.023926Zm-1.728027-1.523926v-.996094c-.208008.096191-.466309.172363-.773926.228027-.308105.056152-.594238.100098-.858398.132324-.463867.055664-.833984.164062-1.109863.32373-.275879.160156-.414062.439941-.414062.840332,0,.311523.114258.555664.342285.731934.228027.175781.541504.263672.941895.263672.295898,0,.585938-.065918.870117-.197754.283691-.132324.521973-.313965.713867-.545898s.288086-.492188.288086-.780273Z" style="fill: gray;"/>
    <path d="m954.38916,266.849609v-6.288086h.924316v1.355957c.208008-.447754.507812-.815918.899902-1.104004s.84375-.431641,1.355957-.431641c.720215,0,1.27002.184082,1.649902.551758.379883.368164.598145.864258.654297,1.487793h-.996094c-.072266-.375488-.218262-.663574-.437988-.86377-.220215-.199707-.541992-.299805-.966309-.299805-.416016,0-.779785.109863-1.091797.32959-.312012.220215-.554199.520508-.726074.900391s-.257812.817871-.257812,1.313965v3.047852h-1.008301Z" style="fill: gray;"/>
  </g>
  <line x1="239.5" y1="400" x2="239.5" y2="412" style="fill: none; stroke: gray; stroke-miterlimit: 10;"/>
  <line x1="960.5" y1="400" x2="960.5" y2="412" style="fill: none; stroke: gray; stroke-miterlimit: 10;"/>
  <g>
    <path d="m578.616699,419.612305h5.6875v.887695c-.624023.87207-1.164062,1.698242-1.620117,2.477539-.456055.780273-.833984,1.572266-1.133789,2.375977-.299805.804688-.53418,1.686523-.702148,2.646484h-1.12793c.167969-.704102.337891-1.326172.509766-1.866211.172852-.540039.356445-1.033203.552734-1.481445.195312-.448242.414062-.882812.65332-1.302734.240234-.419922.510742-.855469.810547-1.307617s.641602-.954102,1.025391-1.505859h-4.655273v-.923828Z" style="fill: gray;"/>
    <path d="m591.684082,427.076172v.923828h-5.664062c.048828-.65625.148438-1.202148.300781-1.637695.151367-.436523.393555-.818359.725586-1.146484s.786133-.647461,1.362305-.959961l1.116211-.612305c.375977-.207031.65918-.449219.851562-.725586s.288086-.597656.288086-.96582c0-.47168-.12793-.858398-.383789-1.158203-.256836-.299805-.652344-.450195-1.188477-.450195-.616211,0-1.063477.192383-1.34375.576172s-.44043.883789-.480469,1.5h-1.055664c.032227-.959961.290039-1.700195.774414-2.219727.483398-.520508,1.197266-.780273,2.141602-.780273.576172,0,1.057617.114258,1.446289.341797.387695.228516.679688.532227.875977.912109.195312.379883.293945.806641.293945,1.27832,0,1.072266-.59668,1.923828-1.788086,2.555664l-1.200195.635742c-.503906.272461-.87793.5625-1.12207.870117-.244141.308594-.385742.662109-.425781,1.0625h4.475586Z" style="fill: gray;"/>
    <path d="m596.220215,428v-6.083984h-2.244141v-.791992c.496094-.024414.890625-.055664,1.182617-.095703s.517578-.112305.677734-.216797c.160156-.103516.286133-.257812.37793-.461914.091797-.203125.181641-.481445.270508-.833984h.791992v8.484375h-1.056641Z" style="fill: gray;"/>
    <path d="m609.468262,430.616211h-1.007812v-8.904297h.923828v.936523c.463867-.751953,1.131836-1.128906,2.003906-1.128906.624023,0,1.134766.158203,1.530273.474609.396484.316406.69043.731445.881836,1.248047.192383.515625.288086,1.078125.288086,1.685547,0,.600586-.097656,1.150391-.293945,1.650391s-.494141.898438-.893555,1.194336c-.400391.295898-.900391.443359-1.5.443359-.408203,0-.766602-.074219-1.074219-.22168-.308594-.148438-.59375-.385742-.858398-.713867v3.335938Zm1.751953-8.160156c-.416016,0-.751953.116211-1.007812.347656-.255859.232422-.444336.532227-.563477.900391-.120117.368164-.180664.755859-.180664,1.164062s.060547.795898.180664,1.164062c.119141.368164.307617.667969.563477.899414.255859.232422.591797.348633,1.007812.348633.423828,0,.770508-.114258,1.038086-.341797.268555-.228516.46582-.524414.59375-.888672.12793-.363281.192383-.746094.192383-1.145508,0-.423828-.064453-.822266-.192383-1.194336s-.325195-.673828-.59375-.90625c-.267578-.231445-.614258-.347656-1.038086-.347656Z" style="fill: gray;"/>
    <path d="m618.588379,421.711914h2.47168v.816406h-2.47168v3.503906c0,.463867.120117.786133.360352.96582s.587891.269531,1.043945.269531c.208008,0,.399414-.009766.576172-.029297.175781-.020508.339844-.049805.491211-.089844v.875977c-.199219.055664-.395508.09375-.587891.113281-.191406.020508-.37207.030273-.540039.030273-.759766,0-1.339844-.15625-1.739258-.467773-.400391-.3125-.600586-.808594-.600586-1.488281v-3.683594h-1.811523v-.816406h1.811523v-1.727539h.996094v1.727539Z" style="fill: gray;"/>
  </g>
  <g>
    <line x1="243.030273" y1="408" x2="956.969727" y2="408" style="fill: none; stroke: gray; stroke-miterlimit: 10;"/>
    <polygon points="239.5 408 244.474609 410.032715 243.294189 408 244.474609 405.967773 239.5 408" style="fill: gray;"/>
    <polygon points="960.5 408 955.525391 410.032715 956.705811 408 955.525391 405.967773 960.5 408" style="fill: gray;"/>
  </g>
  <line x1="963" y1="397.5" x2="975" y2="397.5" style="fill: none; stroke: gray; stroke-miterlimit: 10;"/>
  <line x1="963" y1="277.5" x2="975" y2="277.5" style="fill: none; stroke: gray; stroke-miterlimit: 10;"/>
  <g>
    <path d="m991,355.989258h-6.083984v2.244141h-.791992c-.023926-.496094-.055664-.890625-.096191-1.182617-.039551-.291992-.111816-.517578-.21582-.677734s-.257812-.286133-.461914-.37793-.481934-.181641-.833984-.270508v-.791992h8.483887v1.056641Z" style="fill: gray;"/>
    <path d="m990.076172,345.693359h.923828v5.664062c-.655762-.048828-1.20166-.148438-1.638184-.300781-.435547-.151367-.817871-.393555-1.145996-.725586-.327637-.332031-.647949-.786133-.959961-1.362305l-.611816-1.116211c-.208008-.375977-.450195-.65918-.726074-.851562s-.598145-.288086-.96582-.288086c-.472168,0-.85791.12793-1.158203.383789-.299805.256836-.449707.652344-.449707,1.188477,0,.616211.191895,1.063477.575684,1.34375.384277.280273.884277.44043,1.5.480469v1.055664c-.959961-.032227-1.699707-.290039-2.219727-.774414-.52002-.483398-.780273-1.197266-.780273-2.141602,0-.576172.114258-1.057617.342285-1.446289.228027-.387695.531738-.679688.911621-.875977.380371-.195312.806152-.293945,1.27832-.293945,1.071777,0,1.923828.59668,2.555664,1.788086l.63623,1.200195c.271973.503906.562012.87793.870117,1.12207s.662109.385742,1.062012.425781v-4.475586Z" style="fill: gray;"/>
    <path d="m982.419922,341.084961c0-.543945.12207-.996094.366211-1.356445.244141-.359375.574219-.643555.989746-.851562.416016-.208008.88623-.355469,1.410156-.444336.523926-.087891,1.065918-.131836,1.625977-.131836s1.102051.043945,1.625977.131836c.523926.088867.996094.236328,1.416016.444336s.751953.492188.996094.851562c.243652.360352.365723.8125.365723,1.356445s-.12207.996094-.365723,1.356445c-.244141.359375-.576172.643555-.996094.851562s-.89209.356445-1.416016.444336-1.065918.131836-1.625977.131836-1.102051-.043945-1.625977-.131836-.994141-.236328-1.410156-.444336c-.415527-.208008-.745605-.492188-.989746-.851562-.244141-.360352-.366211-.8125-.366211-1.356445Zm.912109,0c0,.616211.315918,1.070312.947754,1.362305.632324.291992,1.476074.4375,2.532227.4375.512207,0,.978027-.03418,1.397949-.101562.419922-.068359.77832-.169922,1.074219-.306641l-5.556152-2.363281c-.26416.263672-.395996.587891-.395996.97168Zm3.47998-1.799805c-.463867,0-.888184.02832-1.271973.083984-.384277.055664-.724121.139648-1.02002.251953l5.496094,2.31543c.191895-.239258.288086-.523438.288086-.851562,0-.416016-.144043-.755859-.432129-1.019531-.288086-.264648-.693848-.459961-1.218262-.588867-.523926-.12793-1.137695-.191406-1.841797-.191406Z" style="fill: gray;"/>
    <path d="m993.616211,327.90918v1.007812h-8.904297v-.923828h.936035c-.751953-.463867-1.12793-1.131836-1.12793-2.003906,0-.624023.158203-1.134766.474121-1.530273.315918-.396484.731934-.69043,1.248047-.881836.515625-.192383,1.078125-.288086,1.686035-.288086.599609,0,1.149902.097656,1.649902.293945s.897949.494141,1.193848.893555c.295898.400391.443848.900391.443848,1.5,0,.408203-.07373.766602-.22168,1.074219-.147949.308594-.38623.59375-.714355.858398h3.336426Zm-8.160156-1.751953c0,.416016.116211.751953.348145,1.007812s.531738.444336.899902.563477c.368164.120117.755859.180664,1.164062.180664.407715,0,.795898-.060547,1.164062-.180664.367676-.119141.667969-.307617.899902-.563477s.347656-.591797.347656-1.007812c0-.423828-.11377-.770508-.341797-1.038086-.228027-.268555-.523926-.46582-.888184-.59375-.36377-.12793-.745605-.192383-1.145996-.192383-.423828,0-.821777.064453-1.193848.192383s-.673828.325195-.905762.59375c-.231934.267578-.348145.614258-.348145,1.038086Z" style="fill: gray;"/>
    <path d="m984.711914,318.789062v-2.47168h.815918v2.47168h3.504395c.463867,0,.785645-.120117.96582-.360352s.27002-.587891.27002-1.043945c0-.208008-.009766-.399414-.030273-.576172-.019531-.175781-.049805-.339844-.089844-.491211h.875977c.056152.199219.094238.395508.114258.587891.019531.191406.029785.37207.029785.540039,0,.759766-.155762,1.339844-.467773,1.739258-.312012.400391-.808105.600586-1.488281.600586h-3.684082v1.811523h-.815918v-1.811523h-1.728027v-.996094h1.728027Z" style="fill: gray;"/>
  </g>
  <g>
    <line x1="971" y1="393.969727" x2="971" y2="281.030273" style="fill: none; stroke: gray; stroke-miterlimit: 10;"/>
    <polygon points="971 397.5 973.032715 392.525391 971 393.705811 968.967773 392.525391 971 397.5" style="fill: gray;"/>
    <polygon points="971 277.5 973.032715 282.474609 971 281.294189 968.967773 282.474609 971 277.5" style="fill: gray;"/>
  </g>
  <line x1="242" y1="277.5" x2="254" y2="277.5" style="fill: none; stroke: gray; stroke-miterlimit: 10;"/>
  <line x1="242" y1="177.5" x2="254" y2="177.5" style="fill: none; stroke: gray; stroke-miterlimit: 10;"/>
  <g>
    <path d="m270,247.235352h-6.083984v2.244141h-.791992c-.023926-.496094-.055664-.890625-.096191-1.182617-.039551-.291992-.111816-.517578-.21582-.677734s-.257812-.286133-.461914-.37793-.481934-.181641-.833984-.270508v-.791992h8.483887v1.056641Z" style="fill: gray;"/>
    <path d="m261.419922,239.74707c0-.543945.12207-.996094.366211-1.356445.244141-.359375.574219-.643555.989746-.851562.416016-.208008.88623-.355469,1.410156-.444336.523926-.087891,1.065918-.131836,1.625977-.131836s1.102051.043945,1.625977.131836c.523926.088867.996094.236328,1.416016.444336s.751953.492188.996094.851562c.243652.360352.365723.8125.365723,1.356445s-.12207.996094-.365723,1.356445c-.244141.359375-.576172.643555-.996094.851562s-.89209.356445-1.416016.444336-1.065918.131836-1.625977.131836-1.102051-.043945-1.625977-.131836-.994141-.236328-1.410156-.444336c-.415527-.208008-.745605-.492188-.989746-.851562-.244141-.360352-.366211-.8125-.366211-1.356445Zm.912109,0c0,.616211.315918,1.070312.947754,1.362305.632324.291992,1.476074.4375,2.532227.4375.512207,0,.978027-.03418,1.397949-.101562.419922-.068359.77832-.169922,1.074219-.306641l-5.556152-2.363281c-.26416.263672-.395996.587891-.395996.97168Zm3.47998-1.799805c-.463867,0-.888184.02832-1.271973.083984-.384277.055664-.724121.139648-1.02002.251953l5.496094,2.31543c.191895-.239258.288086-.523438.288086-.851562,0-.416016-.144043-.755859-.432129-1.019531-.288086-.264648-.693848-.459961-1.218262-.588867-.523926-.12793-1.137695-.191406-1.841797-.191406Z" style="fill: gray;"/>
    <path d="m261.419922,232.331055c0-.543945.12207-.996094.366211-1.356445.244141-.359375.574219-.643555.989746-.851562.416016-.208008.88623-.355469,1.410156-.444336.523926-.087891,1.065918-.131836,1.625977-.131836s1.102051.043945,1.625977.131836c.523926.088867.996094.236328,1.416016.444336s.751953.492188.996094.851562c.243652.360352.365723.8125.365723,1.356445s-.12207.996094-.365723,1.356445c-.244141.359375-.576172.643555-.996094.851562s-.89209.356445-1.416016.444336-1.065918.131836-1.625977.131836-1.102051-.043945-1.625977-.131836-.994141-.236328-1.410156-.444336c-.415527-.208008-.745605-.492188-.989746-.851562-.244141-.360352-.366211-.8125-.366211-1.356445Zm.912109,0c0,.616211.315918,1.070312.947754,1.362305.632324.291992,1.476074.4375,2.532227.4375.512207,0,.978027-.03418,1.397949-.101562.419922-.068359.77832-.169922,1.074219-.306641l-5.556152-2.363281c-.26416.263672-.395996.587891-.395996.97168Zm3.47998-1.799805c-.463867,0-.888184.02832-1.271973.083984-.384277.055664-.724121.139648-1.02002.251953l5.496094,2.31543c.191895-.239258.288086-.523438.288086-.851562,0-.416016-.144043-.755859-.432129-1.019531-.288086-.264648-.693848-.459961-1.218262-.588867-.523926-.12793-1.137695-.191406-1.841797-.191406Z" style="fill: gray;"/>
    <path d="m272.616211,219.155273v1.007812h-8.904297v-.923828h.936035c-.751953-.463867-1.12793-1.131836-1.12793-2.003906,0-.624023.158203-1.134766.474121-1.530273.315918-.396484.731934-.69043,1.248047-.881836.515625-.192383,1.078125-.288086,1.686035-.288086.599609,0,1.149902.097656,1.649902.293945s.897949.494141,1.193848.893555c.295898.400391.443848.900391.443848,1.5,0,.408203-.07373.766602-.22168,1.074219-.147949.308594-.38623.59375-.714355.858398h3.336426Zm-8.160156-1.751953c0,.416016.116211.751953.348145,1.007812s.531738.444336.899902.563477c.368164.120117.755859.180664,1.164062.180664.407715,0,.795898-.060547,1.164062-.180664.367676-.119141.667969-.307617.899902-.563477s.347656-.591797.347656-1.007812c0-.423828-.11377-.770508-.341797-1.038086-.228027-.268555-.523926-.46582-.888184-.59375-.36377-.12793-.745605-.192383-1.145996-.192383-.423828,0-.821777.064453-1.193848.192383s-.673828.325195-.905762.59375c-.231934.267578-.348145.614258-.348145,1.038086Z" style="fill: gray;"/>
    <path d="m263.711914,210.035156v-2.47168h.815918v2.47168h3.504395c.463867,0,.785645-.120117.96582-.360352s.27002-.587891.27002-1.043945c0-.208008-.009766-.399414-.030273-.576172-.019531-.175781-.049805-.339844-.089844-.491211h.875977c.056152.199219.094238.395508.114258.587891.019531.191406.029785.37207.029785.540039,0,.759766-.155762,1.339844-.467773,1.739258-.312012.400391-.808105.600586-1.488281.600586h-3.684082v1.811523h-.815918v-1.811523h-1.728027v-.996094h1.728027Z" style="fill: gray;"/>
  </g>
  <g>
    <line x1="250" y1="273.969727" x2="250" y2="181.030273" style="fill: none; stroke: gray; stroke-miterlimit: 10;"/>
    <polygon points="250 277.5 252.032715 272.525391 250 273.705811 247.967773 272.525391 250 277.5" style="fill: gray;"/>
    <polygon points="250 177.5 252.032715 182.474609 250 181.294189 247.967773 182.474609 250 177.5" style="fill: gray;"/>
  </g>
  <line x1="139.5" y1="280" x2="139.5" y2="292" style="fill: none; stroke: gray; stroke-miterlimit: 10;"/>
  <line x1="239.5" y1="280" x2="239.5" y2="292" style="fill: none; stroke: gray; stroke-miterlimit: 10;"/>
  <g>
    <path d="m169.762207,308v-6.083984h-2.244141v-.791992c.496094-.023926.890625-.055664,1.182617-.096191.291992-.039551.517578-.111816.677734-.21582s.286133-.257812.37793-.461914.181641-.481934.270508-.833984h.791992v8.483887h-1.056641Z" style="fill: gray;"/>
    <path d="m177.250488,299.419922c.543945,0,.996094.12207,1.356445.366211.359375.244141.643555.574219.851562.989746.208008.416016.355469.88623.444336,1.410156.087891.523926.131836,1.065918.131836,1.625977s-.043945,1.102051-.131836,1.625977c-.088867.523926-.236328.996094-.444336,1.416016s-.492188.751953-.851562.996094c-.360352.243652-.8125.365723-1.356445.365723s-.996094-.12207-1.356445-.365723c-.359375-.244141-.643555-.576172-.851562-.996094s-.356445-.89209-.444336-1.416016-.131836-1.065918-.131836-1.625977.043945-1.102051.131836-1.625977.236328-.994141.444336-1.410156c.208008-.415527.492188-.745605.851562-.989746.360352-.244141.8125-.366211,1.356445-.366211Zm0,.912109c-.616211,0-1.070312.315918-1.362305.947754-.291992.632324-.4375,1.476074-.4375,2.532227,0,.512207.03418.978027.101562,1.397949.068359.419922.169922.77832.306641,1.074219l2.363281-5.556152c-.263672-.26416-.587891-.395996-.97168-.395996Zm1.799805,3.47998c0-.463867-.02832-.888184-.083984-1.271973-.055664-.384277-.139648-.724121-.251953-1.02002l-2.31543,5.496094c.239258.191895.523438.288086.851562.288086.416016,0,.755859-.144043,1.019531-.432129.264648-.288086.459961-.693848.588867-1.218262.12793-.523926.191406-1.137695.191406-1.841797Z" style="fill: gray;"/>
    <path d="m184.666504,299.419922c.543945,0,.996094.12207,1.356445.366211.359375.244141.643555.574219.851562.989746.208008.416016.355469.88623.444336,1.410156.087891.523926.131836,1.065918.131836,1.625977s-.043945,1.102051-.131836,1.625977c-.088867.523926-.236328.996094-.444336,1.416016s-.492188.751953-.851562.996094c-.360352.243652-.8125.365723-1.356445.365723s-.996094-.12207-1.356445-.365723c-.359375-.244141-.643555-.576172-.851562-.996094s-.356445-.89209-.444336-1.416016-.131836-1.065918-.131836-1.625977.043945-1.102051.131836-1.625977.236328-.994141.444336-1.410156c.208008-.415527.492188-.745605.851562-.989746.360352-.244141.8125-.366211,1.356445-.366211Zm0,.912109c-.616211,0-1.070312.315918-1.362305.947754-.291992.632324-.4375,1.476074-.4375,2.532227,0,.512207.03418.978027.101562,1.397949.068359.419922.169922.77832.306641,1.074219l2.363281-5.556152c-.263672-.26416-.587891-.395996-.97168-.395996Zm1.799805,3.47998c0-.463867-.02832-.888184-.083984-1.271973-.055664-.384277-.139648-.724121-.251953-1.02002l-2.31543,5.496094c.239258.191895.523438.288086.851562.288086.416016,0,.755859-.144043,1.019531-.432129.264648-.288086.459961-.693848.588867-1.218262.12793-.523926.191406-1.137695.191406-1.841797Z" style="fill: gray;"/>
    <path d="m197.842285,310.616211h-1.007812v-8.904297h.923828v.936035c.463867-.751953,1.131836-1.12793,2.003906-1.12793.624023,0,1.134766.158203,1.530273.474121.396484.315918.69043.731934.881836,1.248047.192383.515625.288086,1.078125.288086,1.686035,0,.599609-.097656,1.149902-.293945,1.649902s-.494141.897949-.893555,1.193848c-.400391.295898-.900391.443848-1.5.443848-.408203,0-.766602-.07373-1.074219-.22168-.308594-.147949-.59375-.38623-.858398-.714355v3.336426Zm1.751953-8.160156c-.416016,0-.751953.116211-1.007812.348145s-.444336.531738-.563477.899902c-.120117.368164-.180664.755859-.180664,1.164062,0,.407715.060547.795898.180664,1.164062.119141.367676.307617.667969.563477.899902s.591797.347656,1.007812.347656c.423828,0,.770508-.11377,1.038086-.341797.268555-.228027.46582-.523926.59375-.888184.12793-.36377.192383-.745605.192383-1.145996,0-.423828-.064453-.821777-.192383-1.193848s-.325195-.673828-.59375-.905762c-.267578-.231934-.614258-.348145-1.038086-.348145Z" style="fill: gray;"/>
    <path d="m206.962402,301.711914h2.47168v.815918h-2.47168v3.504395c0,.463867.120117.785645.360352.96582s.587891.27002,1.043945.27002c.208008,0,.399414-.009766.576172-.030273.175781-.019531.339844-.049805.491211-.089844v.875977c-.199219.056152-.395508.094238-.587891.114258-.191406.019531-.37207.029785-.540039.029785-.759766,0-1.339844-.155762-1.739258-.467773-.400391-.312012-.600586-.808105-.600586-1.488281v-3.684082h-1.811523v-.815918h1.811523v-1.728027h.996094v1.728027Z" style="fill: gray;"/>
  </g>
  <g>
    <line x1="143.030273" y1="288" x2="235.969727" y2="288" style="fill: none; stroke: gray; stroke-miterlimit: 10;"/>
    <polygon points="139.5 288 144.474609 290.032715 143.294189 288 144.474609 285.967773 139.5 288" style="fill: gray;"/>
    <polygon points="239.5 288 234.525391 290.032715 235.705811 288 234.525391 285.967773 239.5 288" style="fill: gray;"/>
  </g>
  <line x1="295.500944" y1="443.000027" x2="295.500944" y2="337.003184" style="fill: none; stroke: gray; stroke-dasharray: 0 12; stroke-miterlimit: 10;"/>
  <line x1="139.4997" y1="445.5" x2="139.4997" y2="433" style="fill: none; stroke: gray; stroke-dasharray: 0 12; stroke-miterlimit: 10;"/>
  <g>
    <path d="m201.954102,457v-6.083984h-2.244141v-.791992c.496094-.023926.890625-.055664,1.182617-.096191.291992-.039551.517578-.111816.677734-.21582s.286133-.257812.37793-.461914.181641-.481934.270508-.833984h.791992v8.483887h-1.056641Z" style="fill: gray;"/>
    <path d="m212.19043,450.580078h-1.043945c-.080078-.368164-.226562-.671875-.438477-.912109-.211914-.239746-.533203-.359863-.96582-.359863-.631836,0-1.12207.305664-1.469727.917969-.347656.611816-.522461,1.454102-.522461,2.525879.18457-.328125.461914-.595703.833984-.803711s.793945-.312012,1.266602-.312012c.536133,0,.990234.125977,1.361328.37793.37207.251953.65625.582031.852539.989746.196289.408203.293945.848145.293945,1.320312,0,.503906-.104492.976074-.3125,1.416016s-.515625.795898-.923828,1.067871c-.407227.271973-.908203.407715-1.5.407715-.551758,0-1.013672-.11377-1.385742-.341797s-.669922-.540039-.893555-.936035c-.224609-.395996-.384766-.846191-.480469-1.350098s-.143555-1.035645-.143555-1.595703c0-1.448242.267578-2.572266.803711-3.37207s1.299805-1.200195,2.291992-1.200195c.647461,0,1.177734.187988,1.589844.563965.412109.376465.673828.908203.786133,1.596191Zm-2.580078,1.943848c-.335938,0-.635742.083984-.900391.251953-.263672.167969-.47168.394043-.624023.678223-.151367.28418-.227539.605957-.227539.96582s.076172.684082.227539.972168c.152344.288086.360352.516113.624023.684082.264648.167969.564453.251953.900391.251953.52832,0,.94043-.184082,1.236328-.552246.295898-.367676.443359-.819824.443359-1.355957,0-.535645-.147461-.98584-.443359-1.350098-.295898-.36377-.708008-.545898-1.236328-.545898Z" style="fill: gray;"/>
    <path d="m216.858398,448.419922c.543945,0,.996094.12207,1.356445.366211.359375.244141.643555.574219.851562.989746.208008.416016.355469.88623.444336,1.410156.087891.523926.131836,1.065918.131836,1.625977s-.043945,1.102051-.131836,1.625977c-.088867.523926-.236328.996094-.444336,1.416016s-.492188.751953-.851562.996094c-.360352.243652-.8125.365723-1.356445.365723s-.996094-.12207-1.356445-.365723c-.359375-.244141-.643555-.576172-.851562-.996094s-.356445-.89209-.444336-1.416016-.131836-1.065918-.131836-1.625977.043945-1.102051.131836-1.625977.236328-.994141.444336-1.410156c.208008-.415527.492188-.745605.851562-.989746.360352-.244141.8125-.366211,1.356445-.366211Zm0,.912109c-.616211,0-1.070312.315918-1.362305.947754-.291992.632324-.4375,1.476074-.4375,2.532227,0,.512207.03418.978027.101562,1.397949.068359.419922.169922.77832.306641,1.074219l2.363281-5.556152c-.263672-.26416-.587891-.395996-.97168-.395996Zm1.799805,3.47998c0-.463867-.02832-.888184-.083984-1.271973-.055664-.384277-.139648-.724121-.251953-1.02002l-2.31543,5.496094c.239258.191895.523438.288086.851562.288086.416016,0,.755859-.144043,1.019531-.432129.264648-.288086.459961-.693848.588867-1.218262.12793-.523926.191406-1.137695.191406-1.841797Z" style="fill: gray;"/>
    <path d="m230.03418,459.616211h-1.007812v-8.904297h.923828v.936035c.463867-.751953,1.131836-1.12793,2.003906-1.12793.624023,0,1.134766.158203,1.530273.474121.396484.315918.69043.731934.881836,1.248047.192383.515625.288086,1.078125.288086,1.686035,0,.599609-.097656,1.149902-.293945,1.649902s-.494141.897949-.893555,1.193848c-.400391.295898-.900391.443848-1.5.443848-.408203,0-.766602-.07373-1.074219-.22168-.308594-.147949-.59375-.38623-.858398-.714355v3.336426Zm1.751953-8.160156c-.416016,0-.751953.116211-1.007812.348145s-.444336.531738-.563477.899902c-.120117.368164-.180664.755859-.180664,1.164062,0,.407715.060547.795898.180664,1.164062.119141.367676.307617.667969.563477.899902s.591797.347656,1.007812.347656c.423828,0,.770508-.11377,1.038086-.341797.268555-.228027.46582-.523926.59375-.888184.12793-.36377.192383-.745605.192383-1.145996,0-.423828-.064453-.821777-.192383-1.193848s-.325195-.673828-.59375-.905762c-.267578-.231934-.614258-.348145-1.038086-.348145Z" style="fill: gray;"/>
    <path d="m239.154297,450.711914h2.47168v.815918h-2.47168v3.504395c0,.463867.120117.785645.360352.96582s.587891.27002,1.043945.27002c.208008,0,.399414-.009766.576172-.030273.175781-.019531.339844-.049805.491211-.089844v.875977c-.199219.056152-.395508.094238-.587891.114258-.191406.019531-.37207.029785-.540039.029785-.759766,0-1.339844-.155762-1.739258-.467773-.400391-.312012-.600586-.808105-.600586-1.488281v-3.684082h-1.811523v-.815918h1.811523v-1.728027h.996094v1.728027Z" style="fill: gray;"/>
  </g>
  <g>
    <line x1="292.171875" y1="436.999908" x2="143.732178" y2="436.999908" style="fill: none; stroke: gray; stroke-dasharray: 0 0 12 12; stroke-miterlimit: 10;"/>
    <polygon points="295.702148 436.999908 290.727539 434.967194 291.907959 436.999908 290.727539 439.032135 295.702148 436.999908" style="fill: gray;"/>
    <polygon points="140.201904 436.999908 145.176514 434.967194 143.996094 436.999908 145.176514 439.032135 140.201904 436.999908" style="fill: gray;"/>
  </g>
  <rect x="239.5" y="277.5" width="721" height="120" style="fill: none; stroke: gray; stroke-miterlimit: 10;"/>
  <g>
    <polyline points="239.5 271.5 239.5 277.5 233.5 277.5" style="fill: none; stroke: gray; stroke-miterlimit: 10;"/>
    <line x1="220.928589" y1="277.5" x2="151.785767" y2="277.5" style="fill: none; stroke: gray; stroke-dasharray: 0 0 12.571428 12.571428; stroke-miterlimit: 10;"/>
    <polyline points="145.5 277.5 139.5 277.5 139.5 271.5" style="fill: none; stroke: gray; stroke-miterlimit: 10;"/>
    <line x1="139.5" y1="258.928558" x2="139.5" y2="189.785721" style="fill: none; stroke: gray; stroke-dasharray: 0 0 12.571428 12.571428; stroke-miterlimit: 10;"/>
    <polyline points="139.5 183.5 139.5 177.5 145.5 177.5" style="fill: none; stroke: gray; stroke-miterlimit: 10;"/>
    <line x1="158.071411" y1="177.5" x2="227.214233" y2="177.5" style="fill: none; stroke: gray; stroke-dasharray: 0 0 12.571428 12.571428; stroke-miterlimit: 10;"/>
    <polyline points="233.5 177.5 239.5 177.5 239.5 183.5" style="fill: none; stroke: gray; stroke-miterlimit: 10;"/>
    <line x1="239.5" y1="196.071426" x2="239.5" y2="265.214294" style="fill: none; stroke: gray; stroke-dasharray: 0 0 12.571428 12.571428; stroke-miterlimit: 10;"/>
  </g>
  <rect x="139.4997" y="177.5" width="921.0006" height="320" style="fill: none; stroke: gray; stroke-miterlimit: 10;"/>
  <rect x="139.4997" y="177.5" width="921.0006" height="320" rx="159.99984" ry="159.99984" style="fill: none; stroke: gray; stroke-miterlimit: 10;"/>
  <line x1="139.4997" y1="338" x2="299.4997" y2="338" style="fill: none; stroke: gray; stroke-dasharray: 0 12; stroke-miterlimit: 10;"/>
  <g>
    <line x1="293.413033" y1="335.5" x2="298.413033" y2="340.5" style="fill: none; stroke: gray; stroke-miterlimit: 10;"/>
    <line x1="293.413033" y1="340.5" x2="298.413033" y2="335.5" style="fill: none; stroke: gray; stroke-miterlimit: 10;"/>
  </g>
</svg>